<?xml version="1.0" standalone="no"?>
<!DOCTYPE svg PUBLIC "-//W3C//DTD SVG 20010904//EN"
 "http://www.w3.org/TR/2001/REC-SVG-20010904/DTD/svg10.dtd">
<svg version="1.0" xmlns="http://www.w3.org/2000/svg"
 width="1024.000000pt" height="1024.000000pt" viewBox="0 0 1024.000000 1024.000000"
 preserveAspectRatio="xMidYMid meet">

<g transform="translate(0.000000,1024.000000) scale(0.100000,-0.100000)"
fill="#000000" stroke="none">
<path d="M5025 8601 c-2480 -6 -2500 -6 -2527 -26 -14 -11 -29 -33 -32 -49 -3
-16 -6 -795 -6 -1732 l0 -1703 22 -3 c15 -2 24 -11 26 -26 3 -19 0 -22 -20
-18 -101 22 -143 26 -246 26 -156 -1 -301 -21 -392 -54 -41 -15 -82 -29 -90
-30 -31 -4 -146 -65 -157 -84 -9 -14 -19 -19 -34 -15 -13 4 -20 2 -16 -3 6
-10 0 -11 -74 -15 -30 -1 -55 4 -70 14 -13 10 -29 17 -37 17 -7 0 -61 23 -120
51 -76 37 -128 55 -180 62 -158 24 -296 -40 -389 -178 -41 -60 -76 -167 -75
-230 0 -77 19 -171 43 -213 30 -53 3 -81 -67 -67 -35 6 -41 1 -24 -25 8 -13
10 -13 10 0 0 11 3 11 12 2 7 -7 20 -12 30 -12 10 0 18 -4 18 -9 0 -5 -17 -7
-37 -5 -34 3 -36 3 -16 -8 33 -16 28 -23 -14 -24 -21 -1 -57 -5 -80 -9 -37 -7
-40 -9 -27 -22 10 -11 26 -13 52 -9 27 4 31 3 16 -3 -12 -5 -24 -16 -27 -25
-4 -9 -17 -16 -29 -16 -17 0 -19 -3 -9 -9 22 -14 2 -32 -32 -29 -23 2 -32 -2
-35 -13 -4 -19 24 -29 86 -29 23 0 42 -5 42 -10 0 -6 -6 -10 -12 -9 -18 3 -48
-11 -48 -22 0 -5 7 -9 15 -9 31 0 13 -19 -24 -25 -58 -10 -69 -28 -26 -44 19
-7 38 -10 42 -8 16 10 53 -13 67 -42 16 -29 15 -30 -15 -36 -18 -4 -36 -2 -44
5 -10 8 -15 9 -15 2 0 -6 -12 -12 -27 -14 -26 -3 -23 -5 28 -30 51 -26 125
-41 91 -19 -11 7 -11 9 1 14 8 3 20 0 26 -6 6 -6 11 -7 11 -2 0 4 9 0 20 -10
14 -13 17 -22 10 -35 -5 -10 -6 -20 -2 -24 3 -4 -2 -4 -13 0 -20 7 -20 7 -1
-14 21 -24 16 -28 -17 -10 -20 10 -21 10 -8 -5 11 -14 11 -20 1 -32 -7 -8 -19
-15 -27 -15 -12 0 -12 -2 -1 -13 7 -8 35 -14 63 -14 27 -1 51 -6 53 -12 2 -6
10 -11 18 -11 19 0 56 -38 44 -45 -21 -13 -9 -24 20 -18 17 3 30 1 30 -5 0 -5
9 -12 21 -15 12 -3 18 -10 15 -16 -7 -11 -41 -7 -60 7 -6 4 -21 7 -33 6 -13
-1 -20 3 -16 9 4 6 0 8 -11 4 -10 -4 -30 -7 -44 -7 -25 -1 -24 -2 13 -20 l40
-20 -38 5 c-22 4 -37 2 -37 -5 0 -8 64 -16 94 -11 4 1 13 -3 20 -8 6 -5 31
-12 55 -15 24 -2 47 -10 52 -17 6 -10 13 -10 34 -1 35 16 58 15 52 -2 -7 -17
41 -19 63 -2 13 10 13 9 1 -6 -12 -16 -11 -18 7 -18 12 0 24 -5 27 -10 3 -6 1
-10 -5 -10 -6 0 -21 -9 -33 -21 l-22 -21 38 18 c35 17 39 17 54 1 15 -15 15
-17 -2 -23 -18 -7 -18 -8 1 -14 12 -5 23 -1 31 9 8 10 12 12 13 4 0 -7 12 -13
26 -13 14 0 23 -4 19 -10 -4 -6 6 -10 22 -11 32 -1 77 -17 53 -19 -9 -1 -6 -5
8 -11 29 -11 81 -1 60 12 -9 6 -6 9 12 9 36 0 58 -16 31 -23 -21 -5 -30 -27
-10 -27 5 0 7 5 4 10 -5 7 24 9 87 5 78 -4 95 -8 107 -25 15 -22 41 -27 41 -8
0 6 3 8 7 4 5 -4 -1 -14 -11 -22 -19 -13 -19 -14 7 -14 15 0 27 6 27 13 0 6
11 12 25 12 31 0 33 -14 3 -17 -24 -1 123 -18 179 -20 18 -1 30 -5 28 -9 -8
-11 42 -17 60 -6 12 6 16 6 11 -1 -6 -10 23 -26 32 -17 3 3 -1 5 -8 5 -7 0
-10 3 -7 6 4 4 12 2 19 -3 15 -12 99 -22 92 -11 -3 4 17 6 43 5 33 -2 47 -7
45 -16 -1 -7 2 -10 8 -6 6 3 8 11 5 16 -5 8 2 11 25 11 3 1 17 -2 33 -6 15 -3
27 -3 26 1 -4 22 3 24 20 9 12 -11 30 -15 55 -13 20 2 36 0 36 -5 0 -5 21 -8
48 -8 26 1 99 1 162 1 63 0 127 2 142 4 19 4 30 0 38 -12 7 -13 10 -14 8 -3
-2 8 1 16 6 17 5 1 12 6 15 11 6 9 130 -9 194 -28 15 -5 27 -5 27 0 0 4 18 10
40 12 28 2 39 0 36 -8 -3 -8 3 -10 16 -6 15 4 17 7 6 13 -7 5 -8 9 -3 9 6 0
16 -5 23 -12 8 -8 15 -8 28 3 12 9 15 10 10 2 -5 -9 0 -13 16 -12 130 5 438
-4 438 -12 0 -7 7 -8 18 -4 19 9 352 13 352 5 0 -3 46 -5 102 -3 60 1 108 -3
115 -9 7 -5 18 -8 25 -5 8 4 7 6 -4 6 -10 1 -18 5 -18 10 0 5 45 10 101 10 83
1 100 -1 96 -13 -5 -12 23 -14 169 -12 96 0 175 -3 177 -8 2 -5 12 -4 22 1 29
15 114 27 95 14 -19 -14 -9 -14 27 0 15 6 57 12 92 14 35 2 69 9 75 16 8 9 3
10 -21 6 -19 -4 -33 -2 -33 3 0 11 19 13 137 14 63 1 84 -2 88 -13 3 -8 0 -18
-7 -23 -8 -4 3 -8 27 -8 22 1 82 1 133 1 70 0 104 5 139 20 25 11 48 17 50 15
3 -2 25 1 49 9 24 7 53 11 63 8 10 -3 22 0 25 5 3 6 16 8 29 5 18 -4 19 -3 7
6 -13 10 -13 11 0 12 37 3 66 -4 80 -19 14 -14 13 -15 -4 -1 -15 11 -20 11
-23 1 -3 -6 -10 -9 -16 -5 -7 3 -9 2 -4 -2 4 -5 17 -9 30 -11 12 -1 64 -5 115
-9 51 -5 95 -12 98 -17 3 -4 15 -8 27 -8 21 1 21 1 -3 14 -23 13 -19 14 45 10
51 -3 66 -1 55 7 -11 8 -8 9 15 4 17 -4 48 -7 69 -6 22 0 43 -3 46 -9 3 -5 23
-7 45 -3 36 6 38 7 15 14 -23 6 -23 7 -3 8 27 1 40 -17 19 -25 -9 -3 -14 -10
-11 -14 3 -5 19 -3 35 3 23 9 35 9 50 0 16 -11 18 -10 15 7 -3 17 -1 18 15 8
14 -9 22 -9 35 2 14 12 18 12 26 -1 6 -9 12 -10 17 -4 4 6 16 11 27 12 11 1
39 4 63 7 32 3 45 1 49 -10 3 -8 19 -14 38 -14 41 0 67 9 59 21 -3 5 10 9 28
9 18 0 40 5 48 11 12 9 11 10 -8 6 -12 -3 -20 -1 -17 3 3 5 -1 11 -7 14 -7 3
-2 3 12 -1 14 -4 42 -8 63 -8 20 0 37 -3 37 -7 0 -5 -10 -8 -22 -8 -18 0 -20
-2 -9 -9 11 -7 5 -11 -22 -16 -21 -4 -46 -5 -57 -2 -11 3 -23 1 -26 -5 -4 -6
48 -9 147 -7 85 2 159 0 166 -4 6 -4 15 -3 18 3 4 6 15 8 26 5 10 -4 19 -2 19
4 0 5 -8 12 -17 14 -17 4 -17 5 -1 6 10 0 23 -8 30 -18 12 -19 12 -19 29 1 11
11 23 17 30 12 7 -4 10 -3 6 2 -3 5 41 8 106 7 92 -2 114 -6 125 -20 7 -10 12
-12 12 -5 0 7 10 17 23 22 13 5 16 9 7 10 -24 2 20 18 52 19 15 1 33 -6 42
-14 15 -16 37 -20 35 -7 -3 18 2 26 9 15 11 -17 151 -26 168 -12 10 9 18 8 28
0 8 -7 25 -9 40 -5 15 3 32 1 40 -5 10 -9 15 -8 19 2 3 8 23 14 52 15 43 2 46
1 40 -18 -6 -18 -3 -20 19 -14 17 4 26 2 26 -6 0 -9 4 -9 13 -3 6 6 30 13 52
17 29 5 36 4 25 -3 -12 -8 -8 -11 18 -11 17 0 32 5 32 10 0 6 12 11 28 11 l27
1 -30 8 c-16 4 -26 8 -21 9 6 0 1 8 -10 16 -16 12 -16 14 -3 15 9 0 28 -9 43
-21 22 -18 31 -19 57 -10 17 6 34 9 38 6 10 -6 91 16 87 24 -2 3 25 6 60 6 59
1 82 -7 52 -18 -7 -2 -4 -3 7 -1 11 2 36 4 55 4 27 0 31 3 20 10 -12 8 -8 10
15 10 39 0 116 7 180 15 73 10 95 12 150 14 35 2 44 5 30 10 -20 8 131 25 213
24 25 0 42 4 42 11 0 7 15 10 43 8 33 -2 39 -1 27 8 -12 9 -9 10 13 6 16 -4
27 -2 27 4 0 7 17 9 47 6 35 -4 44 -2 33 5 -11 8 -7 9 17 5 18 -3 35 -1 38 3
9 15 -26 22 -73 15 -40 -6 -44 -5 -39 10 5 12 0 20 -16 26 -15 6 -17 9 -6 9 9
1 22 -6 29 -14 7 -8 20 -14 29 -14 13 1 13 2 -1 6 -10 2 -18 9 -18 15 0 6 9 8
20 5 11 -3 22 -1 25 4 4 5 16 8 28 8 12 0 40 4 62 10 22 6 72 11 112 11 73 0
101 12 61 26 -13 4 -26 7 -29 7 -3 -1 -6 4 -6 12 0 10 12 13 43 10 30 -2 44 1
48 12 3 8 10 12 14 9 5 -3 18 1 28 9 19 14 19 14 -1 15 -11 0 -30 3 -42 6 -16
4 -23 2 -23 -8 0 -10 -16 -14 -62 -15 -35 0 -55 1 -45 4 9 2 17 9 17 14 0 5
17 10 38 10 l37 2 -35 7 c-19 4 -28 8 -20 9 13 1 13 2 0 12 -12 8 -9 9 11 5
18 -4 35 1 52 14 14 11 30 20 36 20 5 0 14 7 19 16 7 13 23 16 62 15 81 -1 64
7 -55 25 -91 15 -70 60 27 58 42 -2 58 2 63 13 6 18 -12 43 -32 43 -20 0 -6
20 15 20 9 1 31 7 47 15 30 15 29 15 -22 10 -44 -5 -54 -3 -62 14 -9 16 -8 18
9 14 11 -3 22 -9 25 -13 5 -8 55 11 55 21 0 3 -8 6 -17 6 -63 -1 -87 4 -73 13
8 5 28 9 45 9 42 0 94 6 99 12 2 2 2 16 -1 31 -4 20 -12 28 -39 33 -40 7 -43
18 -11 33 21 10 21 11 -7 11 -28 1 -29 2 -10 15 23 17 15 27 -34 42 -24 7 -36
16 -33 25 2 8 4 29 6 48 2 26 -2 35 -17 39 -13 3 -17 10 -13 21 3 8 3 12 -1 8
-4 -4 -13 2 -21 13 -8 11 -23 20 -35 20 -22 0 -76 35 -96 62 -7 10 -21 18 -30
19 -11 0 -12 2 -4 6 6 2 10 9 6 14 -3 5 -2 9 3 8 22 -4 25 2 7 15 -14 11 -21
11 -26 3 -5 -8 -12 -6 -22 8 -8 11 -12 23 -10 27 2 4 0 9 -6 13 -5 3 -10 14
-10 24 0 24 -107 106 -200 152 -42 21 -110 46 -151 54 -104 22 -259 31 -287
16 -18 -10 -27 -8 -51 10 -31 23 -68 22 -63 -2 1 -9 -4 -7 -15 6 -10 11 -36
26 -58 32 -22 6 -66 19 -97 28 -32 9 -60 21 -63 25 -3 5 -40 12 -82 16 -43 4
-83 13 -91 20 -7 8 -9 14 -3 14 5 0 13 -4 16 -10 8 -13 45 -13 45 -1 0 11 -63
34 -97 35 -13 1 -54 32 -100 76 -127 121 -203 151 -436 175 l-57 6 2 1697 c1
933 -2 1706 -6 1717 -4 11 -20 31 -37 44 -25 20 -43 24 -112 25 -45 1 -1207 0
-2582 -3z m2650 -62 c26 -23 33 -26 29 -13 -4 11 -14 25 -22 32 -14 11 -14 12
1 12 9 0 21 -9 27 -19 11 -21 15 -3337 4 -3378 -5 -18 -14 -23 -40 -23 l-34 0
0 1668 c0 1033 -4 1673 -10 1682 -8 13 -300 15 -2524 15 -1924 0 -2518 -3
-2527 -12 -7 -7 -15 -40 -19 -75 l-8 -63 1 78 c0 43 -3 80 -7 84 -3 3 -6 -731
-6 -1632 0 -901 -2 -1640 -5 -1643 -3 -3 -5 737 -5 1644 0 1270 3 1653 12
1662 9 9 590 12 2555 12 l2542 0 36 -31z m-59 -42 c4 -3 5 -656 4 -2404 l0
-943 -1747 1 c-962 0 -1743 3 -1736 6 17 6 -7 32 -23 26 -7 -2 -15 1 -20 8 -4
7 -3 10 3 6 15 -9 24 34 11 50 -6 7 -26 13 -45 13 -19 0 -41 7 -49 15 -17 16
-40 11 -48 -12 -4 -11 -2 -13 9 -9 8 3 15 1 15 -4 0 -6 -6 -10 -12 -10 -9 0
-8 -4 2 -10 13 -8 12 -10 -2 -10 -16 0 -21 11 -17 36 0 4 -3 10 -9 13 -5 3
-14 15 -20 26 -10 17 -11 18 -12 3 0 -11 -7 -18 -17 -17 -11 0 -13 3 -5 6 24
10 12 25 -15 19 -16 -4 -47 -11 -70 -15 -41 -8 -43 -7 -44 18 0 14 -3 21 -6
14 -3 -10 -9 -10 -25 0 -16 9 -22 9 -25 -1 -5 -14 -43 28 -43 48 0 6 -7 18
-15 26 -10 10 -15 11 -15 4 0 -8 -9 -10 -26 -6 -23 6 -26 4 -21 -13 3 -12 0
-21 -6 -21 -7 -1 -2 -6 11 -13 18 -10 20 -15 10 -26 -11 -10 -8 -16 12 -33 25
-21 25 -21 2 -15 -19 4 -22 2 -17 -13 7 -23 -25 -37 -37 -15 -5 8 -13 13 -19
10 -5 -4 -9 1 -9 9 0 9 -4 16 -9 16 -4 0 -14 20 -21 45 -14 50 -17 53 -35 28
-11 -15 -13 -12 -12 21 1 24 -4 41 -12 44 -7 2 -16 15 -21 28 -6 14 -18 24
-30 24 -11 0 -20 5 -20 11 0 5 5 7 10 4 6 -3 10 1 10 9 0 9 -7 16 -16 16 -8 0
-12 5 -9 10 7 11 17 11 -279 11 -181 -1 -223 -3 -235 -15 -13 -14 -10 -20 24
-52 30 -27 34 -35 17 -30 -21 7 -21 7 3 -36 14 -24 25 -55 25 -70 0 -16 4 -28
8 -28 5 0 14 -12 20 -26 7 -14 8 -23 2 -19 -5 3 -10 -2 -10 -12 0 -15 -2 -15
-9 -3 -6 8 -7 18 -5 22 3 5 -3 16 -12 25 -16 17 -17 16 -10 -10 6 -26 5 -27
-15 -17 -21 12 -42 4 -22 -8 6 -4 9 -19 6 -35 -4 -22 -9 -26 -30 -22 -22 4
-25 1 -20 -20 2 -14 0 -25 -4 -25 -5 0 -9 9 -9 19 0 11 -5 23 -11 26 -6 4 -7
19 -4 36 4 19 3 29 -5 29 -8 0 -10 11 -6 33 4 21 3 25 -2 13 -7 -15 -12 -7
-27 40 -15 47 -20 54 -26 39 -8 -21 -10 -17 -15 41 -2 27 1 31 17 27 10 -3 19
0 19 6 0 6 -5 11 -12 11 -6 0 -3 6 7 14 11 8 23 12 27 10 4 -3 5 2 2 10 -3 8
-14 18 -24 21 -11 3 -20 20 -24 43 -9 55 -7 74 5 67 6 -4 8 -13 5 -21 -3 -9 4
-16 19 -20 16 -4 22 -11 18 -22 -5 -11 -3 -13 6 -7 8 4 17 2 23 -6 7 -10 8 -8
3 7 -4 16 0 23 15 27 17 4 20 2 15 -16 -6 -21 -5 -21 9 -4 17 22 10 55 -7 38
-16 -16 -30 -13 -24 4 4 8 2 17 -3 20 -6 4 -10 -3 -10 -15 0 -19 -1 -20 -16
-6 -17 18 -28 21 -19 6 3 -5 1 -10 -4 -10 -6 0 -11 4 -11 9 0 5 -3 17 -7 27
-5 15 -2 16 25 11 27 -6 32 -4 32 14 0 11 -10 24 -22 29 l-23 9 23 0 c27 1 29
17 2 33 -11 7 -20 19 -20 27 0 8 -7 11 -20 8 -11 -3 -20 -1 -20 5 0 6 -7 8
-15 4 -10 -4 -15 1 -15 14 0 12 -7 20 -16 20 -9 0 -24 10 -35 23 l-18 22 -1
-25 c-1 -23 -2 -23 -14 -8 -7 10 -16 15 -19 11 -4 -3 -7 -1 -7 5 0 6 10 12 22
14 32 5 35 28 4 28 l-26 0 0 1299 0 1299 23 6 c12 3 456 6 986 6 531 0 967 3
970 6 6 7 3041 -2 3047 -9z m-5059 -1419 c-2 -13 -4 -5 -4 17 -1 22 1 32 4 23
2 -10 2 -28 0 -40z m48 -1279 c-3 -5 0 -6 8 -3 10 4 13 -3 9 -27 -3 -22 -7
-27 -13 -18 -6 9 -9 -3 -9 -34 0 -45 1 -47 20 -37 23 12 27 25 5 16 -8 -3 -15
-1 -15 4 0 5 10 12 21 15 17 6 19 9 8 16 -8 5 -11 9 -6 9 4 0 10 0 15 0 4 0 7
-18 8 -40 0 -22 -4 -40 -9 -40 -4 0 -7 -12 -5 -27 2 -16 9 -27 15 -26 7 2 15
-7 17 -20 9 -45 18 -123 17 -149 -1 -16 4 -28 10 -28 6 0 8 -8 4 -20 -4 -12
-1 -27 5 -35 13 -16 11 -114 -2 -132 -6 -7 -7 -16 -4 -22 3 -5 -3 -7 -14 -4
-22 6 -28 -12 -7 -21 6 -3 -10 -4 -36 -2 -51 3 -53 -9 -2 -17 22 -3 19 -4 -10
-3 l-40 1 -3 333 c-1 227 1 331 8 327 6 -4 8 -11 5 -16z m85 1 c0 -5 -5 -10
-11 -10 -5 0 -7 5 -4 10 3 6 8 10 11 10 2 0 4 -4 4 -10z m17 -182 c-3 -7 -5
-2 -5 12 0 14 2 19 5 13 2 -7 2 -19 0 -25z m597 -115 c-5 -15 -3 -15 10 1 16
20 16 20 16 -1 0 -11 6 -23 14 -26 9 -3 12 -15 9 -31 -4 -20 -1 -26 11 -26 10
0 14 -5 11 -10 -3 -6 1 -17 9 -26 9 -8 16 -13 16 -10 0 3 10 2 22 -3 30 -11
36 -61 7 -61 -11 0 -19 -7 -19 -16 0 -8 -4 -12 -10 -9 -5 3 -10 0 -10 -7 -1
-7 -6 -4 -13 7 -14 23 -34 26 -46 7 -6 -10 -10 -10 -20 2 -7 8 -24 13 -41 11
-16 -2 -31 1 -33 8 -2 7 -3 -1 -1 -16 5 -37 -5 -79 -17 -71 -5 3 -9 0 -9 -5 0
-14 37 -14 45 -1 4 6 11 8 16 5 5 -4 9 -2 9 4 0 6 7 8 16 4 14 -5 14 -7 -2
-16 -11 -6 -22 -15 -26 -21 -5 -7 -8 -6 -8 3 0 10 -3 11 -13 2 -8 -6 -17 -8
-20 -4 -4 3 -7 1 -7 -5 0 -7 -5 -12 -10 -12 -6 0 -9 3 -9 8 1 4 1 16 0 27 -1
17 -3 18 -11 5 -9 -13 -12 -12 -25 4 -13 17 -15 18 -15 3 0 -9 4 -17 9 -17 5
0 7 -9 4 -20 -3 -11 -10 -20 -15 -20 -5 0 -6 -5 -2 -12 4 -7 3 -8 -4 -4 -6 4
-8 14 -5 22 3 8 1 25 -5 37 -25 52 -33 90 -20 99 15 9 6 10 -16 2 -19 -7 -21
-35 -3 -53 10 -11 8 -11 -10 0 -12 7 -20 16 -18 19 3 4 -16 31 -41 60 -31 36
-44 60 -40 72 3 13 0 18 -8 15 -7 -3 -19 -1 -27 4 -10 6 -10 9 -1 9 22 0 12
29 -12 36 -16 4 -23 11 -19 20 3 8 -1 14 -10 14 -9 0 -18 -8 -20 -17 -4 -14
-5 -12 -6 5 l-1 22 215 0 c200 0 214 -1 209 -17z m-16 -238 c-3 -3 -9 2 -12
12 -6 14 -5 15 5 6 7 -7 10 -15 7 -18z m-551 -32 c-3 -10 -5 -4 -5 12 0 17 2
24 5 18 2 -7 2 -21 0 -30z m673 21 c0 -8 -5 -12 -10 -9 -6 4 -8 11 -5 16 9 14
15 11 15 -7z m-60 -9 c0 -8 -2 -15 -4 -15 -2 0 -6 7 -10 15 -3 8 -1 15 4 15 6
0 10 -7 10 -15z m560 -6 c0 -6 -4 -7 -10 -4 -5 3 -10 11 -10 16 0 6 5 7 10 4
6 -3 10 -11 10 -16z m39 -27 c-3 -30 1 -37 11 -22 8 13 10 12 10 -2 0 -13 -8
-18 -25 -18 -14 0 -25 4 -25 10 0 5 -7 7 -15 4 -8 -4 -15 -1 -15 5 0 6 12 11
26 11 24 0 25 3 19 33 -5 26 -4 29 5 14 6 -9 10 -25 9 -35z m-122 32 c-3 -3
-12 -4 -19 -1 -8 3 -5 6 6 6 11 1 17 -2 13 -5z m247 -6 c-4 -7 -7 -29 -5 -50
l2 -38 -88 2 c-68 1 -75 3 -30 5 31 2 57 8 57 13 0 5 -7 7 -15 4 -13 -5 -13
-2 -1 27 15 36 36 50 36 25 0 -9 5 -16 11 -16 5 0 7 5 4 10 -8 14 3 30 21 30
9 0 12 -5 8 -12z m-732 -26 c-7 -2 -13 -18 -13 -35 -1 -18 -3 -24 -6 -14 -2 9
-14 17 -25 17 -21 0 -20 21 2 28 8 3 10 0 5 -8 -5 -9 -4 -11 3 -6 7 4 12 14
12 21 0 9 6 12 17 8 11 -4 12 -8 5 -11z m-605 -24 c-3 -8 -6 -5 -6 6 -1 11 2
17 5 13 3 -3 4 -12 1 -19z m266 -3 c3 -7 -5 -10 -24 -7 -39 6 -47 21 -10 20
17 -1 32 -6 34 -13z m216 -25 c23 -1 24 -2 8 -11 -13 -8 -22 -7 -32 1 -8 6
-20 8 -26 4 -9 -5 -10 -2 -6 10 4 10 7 23 8 29 0 7 5 2 11 -10 7 -15 20 -23
37 -23z m642 17 c-10 -9 -11 -8 -5 6 3 10 9 15 12 12 3 -3 0 -11 -7 -18z
m-984 -3 c-3 -3 -12 -4 -19 -1 -8 3 -5 6 6 6 11 1 17 -2 13 -5z m-132 -14 c4
-6 -9 -10 -32 -9 -38 1 -38 1 -8 9 17 4 31 8 32 9 1 0 5 -3 8 -9z m210 0 c3
-5 1 -10 -4 -10 -6 0 -11 5 -11 10 0 6 2 10 4 10 3 0 8 -4 11 -10z m4998 -117
c-7 -2 -19 -2 -25 0 -7 3 -2 5 12 5 14 0 19 -2 13 -5z m-4440 -30 c-7 -2 -19
-2 -25 0 -7 3 -2 5 12 5 14 0 19 -2 13 -5z m160 0 c3 -5 -18 -7 -46 -5 -92 5
-104 9 -30 11 39 0 74 -2 76 -6z m3347 -63 l0 -70 -1742 2 c-959 1 -1671 5
-1583 8 88 3 149 7 135 8 -44 4 -70 14 -70 27 0 7 -6 16 -12 18 -8 4 -7 6 4 6
9 1 18 6 20 12 2 7 9 5 17 -5 11 -14 11 -16 -3 -16 -9 0 -16 -5 -16 -11 0 -5
5 -7 10 -4 6 3 10 1 10 -4 0 -19 17 -12 23 9 3 11 1 20 -3 20 -5 0 -8 9 -7 20
1 15 7 19 27 18 14 -2 28 -7 31 -11 3 -4 12 -1 19 8 11 13 4 15 -56 17 -115 3
-123 4 -130 11 -4 4 743 7 1659 7 l1667 0 0 -70z m558 63 c-16 -2 -40 -2 -55
0 -16 2 -3 4 27 4 30 0 43 -2 28 -4z m-20 -60 c-21 -2 -57 -2 -80 0 -24 2 -7
4 37 4 44 0 63 -2 43 -4z m-4361 -65 c-2 -13 -4 -3 -4 22 0 25 2 35 4 23 2
-13 2 -33 0 -45z m4778 36 c-29 -26 -43 -27 -102 -2 l-28 11 30 7 c17 3 52 7
79 8 l49 2 -28 -26z m55 -9 c0 -1 -9 -5 -19 -8 -13 -3 -18 -1 -14 9 4 10 33
10 33 -1z m-6380 1 c0 -2 -7 -7 -16 -10 -8 -3 -12 -2 -9 4 6 10 25 14 25 6z
m-453 -22 c-3 -3 -12 -4 -19 -1 -8 3 -5 6 6 6 11 1 17 -2 13 -5z m-43 -18 c-3
-7 -17 -11 -33 -8 -16 2 -37 0 -46 -6 -12 -6 17 -8 86 -5 99 3 102 2 70 -12
-18 -8 -38 -12 -45 -8 -6 3 -8 3 -4 -2 9 -9 -9 -35 -24 -35 -5 0 -6 6 -2 13 9
14 -37 -26 -69 -60 -11 -13 -25 -23 -30 -23 -6 0 -7 3 -4 7 4 3 1 13 -6 22
-10 14 -10 14 4 3 14 -10 18 -10 22 1 4 10 -2 13 -18 11 -38 -4 -54 28 -31 65
19 30 141 65 130 37z m6428 -86 c16 -65 89 -314 143 -485 115 -365 115 -365
115 -505 0 -106 -3 -129 -16 -134 -8 -3 -765 -5 -1682 -5 -1048 0 -1656 4
-1637 10 17 5 49 8 72 7 23 -1 48 4 57 11 9 8 19 11 23 7 3 -3 0 -6 -8 -6 -12
0 -12 -2 0 -9 24 -15 222 -11 238 5 9 8 24 12 37 8 13 -3 38 2 57 10 19 8 25
14 14 13 -14 -1 -20 4 -19 16 1 9 -2 17 -7 17 -5 0 -4 9 3 20 7 10 8 23 4 27
-5 4 -11 3 -13 -4 -2 -7 -11 -9 -19 -6 -8 3 -23 -5 -34 -17 -11 -13 -23 -20
-28 -16 -4 4 2 14 12 22 17 12 18 14 3 14 -9 0 -17 -5 -17 -11 0 -6 -7 -9 -15
-5 -8 3 -15 1 -15 -4 0 -6 -7 -10 -15 -10 -8 0 -15 8 -15 18 0 18 12 20 163
26 15 1 27 7 27 14 0 14 16 16 24 3 3 -4 29 -6 57 -3 37 3 50 2 45 -7 -4 -6
-3 -11 2 -11 5 0 12 -9 15 -20 3 -13 0 -20 -10 -20 -8 0 -11 5 -7 11 3 6 0 15
-7 20 -22 14 -27 11 -21 -16 3 -18 11 -25 28 -25 30 0 38 18 25 53 -9 24 -8
27 10 27 12 0 17 -4 13 -11 -8 -14 36 -2 51 13 7 7 2 8 -13 3 -14 -4 -28 -1
-38 9 -14 14 -10 15 43 11 32 -3 82 -12 111 -21 37 -10 61 -12 85 -5 27 8 28
9 8 10 -13 1 -22 4 -18 7 10 10 387 11 387 1 0 -4 5 -5 11 -1 7 4 401 8 876
10 l864 3 -7 -22 c-5 -20 -5 -20 7 -5 18 23 90 29 97 9 3 -9 0 -12 -9 -9 -8 3
-20 0 -26 -8 -11 -11 -8 -12 16 -9 24 3 30 -1 34 -21 2 -13 0 -24 -5 -24 -9 0
-6 -28 8 -63 4 -11 -2 -17 -23 -20 -15 -3 -1 -4 32 -3 42 1 59 5 58 14 -2 6 2
12 7 12 6 0 10 -8 10 -18 0 -16 6 -18 38 -13 l37 6 3 93 3 92 -1731 0 c-1529
0 -1731 2 -1736 15 -4 8 -15 15 -25 15 -11 0 -22 7 -25 15 -4 8 -13 15 -21 15
-9 0 -13 -6 -9 -15 12 -31 -33 -44 -156 -44 -145 -1 -157 3 -127 35 12 13 29
24 36 24 8 0 11 5 8 10 -3 6 1 10 10 10 8 0 23 4 33 9 9 6 35 13 56 16 29 5
36 9 25 16 -8 5 -11 9 -6 10 4 1 12 3 17 4 6 1 480 3 1055 4 1012 1 1045 2
1045 20 0 20 -107 615 -116 644 -3 10 -15 17 -29 17 -17 0 -22 -5 -20 -17 2
-10 6 -35 9 -55 l5 -38 -88 0 -88 0 -6 50 c-7 61 -12 70 -38 70 -17 0 -19 -7
-19 -59 l0 -58 -77 1 -78 1 -8 53 c-8 46 -11 52 -33 52 -22 0 -24 -3 -24 -55
l0 -55 -84 0 -83 0 -7 50 c-4 28 -11 50 -16 50 -4 0 -15 3 -24 6 -13 5 -16 -3
-16 -49 l0 -56 -85 2 -85 2 0 53 c0 51 0 52 -30 52 -30 0 -30 -1 -30 -52 l0
-53 -84 3 -85 3 -3 47 c-3 43 -5 47 -30 50 -28 3 -28 2 -28 -51 l0 -54 -77 1
-78 1 4 45 c1 25 5 49 8 53 3 5 -10 7 -28 5 -34 -3 -34 -4 -37 -57 l-3 -53
-37 6 c-20 3 -58 6 -84 6 l-48 0 0 51 c0 49 -1 50 -27 47 -25 -3 -28 -7 -33
-52 l-5 -48 -71 -2 -71 -1 1 50 c1 47 -1 50 -24 50 -26 0 -27 -2 -29 -60 l-1
-35 -88 0 -88 0 4 38 c2 20 8 42 13 48 7 8 -1 13 -26 16 -33 4 -35 2 -41 -32
-12 -73 -8 -70 -91 -70 -64 0 -74 2 -69 16 3 9 6 26 6 39 0 14 7 25 18 28 9 3
-4 5 -29 6 -51 1 -59 -7 -59 -59 0 -16 -5 -32 -11 -36 -6 -3 -45 -3 -86 1 -75
7 -75 7 -70 33 3 15 9 35 12 45 6 13 2 17 -19 17 -14 0 -26 5 -26 10 0 6 -9
10 -20 10 -11 0 -20 -5 -20 -11 0 -6 6 -9 13 -6 11 4 12 -4 4 -44 l-10 -49
-88 0 c-96 0 -98 1 -83 57 6 20 54 40 54 22 0 -5 -9 -9 -20 -9 -11 0 -20 -3
-20 -7 0 -5 -3 -18 -6 -30 -6 -22 -4 -23 75 -23 l81 0 -1 28 c-1 20 -3 22 -6
6 -3 -17 -12 -20 -58 -21 -30 0 -55 3 -55 8 0 5 9 9 20 9 13 0 20 6 19 18 0
10 -3 12 -6 5 -2 -7 -10 -13 -16 -13 -18 0 20 33 40 35 10 0 20 5 23 10 7 12
-113 18 -313 16 -36 -1 -56 -5 -52 -11 3 -5 1 -10 -4 -10 -6 0 -11 4 -11 10 0
6 -67 9 -180 7 -143 -2 -180 1 -180 11 0 7 -4 11 -8 8 -11 -6 -2 -76 9 -76 8
0 11 8 8 26 -1 8 22 24 34 24 4 0 3 -8 -3 -17 -5 -10 -33 -83 -61 -163 -91
-260 -169 -484 -169 -485 0 -3 116 -10 197 -13 35 -2 40 -5 36 -21 -4 -15 0
-18 21 -14 20 4 25 2 21 -10 -4 -8 1 -17 9 -20 9 -4 16 -1 16 6 0 8 4 6 10 -3
6 -10 10 -11 10 -2 0 6 5 12 11 12 5 0 7 -4 4 -10 -3 -5 1 -20 9 -32 27 -38
20 -48 -31 -48 -57 0 -53 -8 5 -11 33 -2 42 -7 42 -21 0 -15 8 -18 51 -18 31
0 48 4 44 10 -3 6 -2 10 4 10 15 0 26 -23 13 -28 -17 -5 -15 -22 3 -22 9 0 15
9 15 25 0 17 4 23 15 19 8 -4 12 -10 9 -15 -3 -5 15 -6 40 -3 l46 5 0 -41 c0
-28 -4 -40 -14 -40 -21 0 -31 -21 -15 -31 11 -7 11 -9 -3 -9 -9 0 -18 10 -21
23 -4 18 -5 17 -6 -7 -1 -21 -5 -27 -16 -22 -21 8 -19 -11 3 -23 12 -7 -95
-10 -348 -8 -236 1 -365 6 -364 12 9 70 11 136 4 115 -9 -24 -9 -24 -7 5 1 18
7 29 15 28 18 -4 15 14 -4 25 -12 7 -15 17 -11 38 54 252 78 347 141 540 40
126 82 262 92 302 14 53 22 71 32 67 10 -3 12 0 8 10 -7 19 179 20 2843 20
l1965 0 8 -35z m808 24 c0 -2 -9 -4 -20 -4 -11 0 -20 4 -20 9 0 5 9 7 20 4 11
-3 20 -7 20 -9z m-7089 -28 c-9 -11 -9 -15 1 -19 8 -4 7 -6 -4 -6 -27 -1 -22
-18 10 -35 15 -8 22 -15 16 -16 -5 0 -19 6 -29 14 -19 14 -45 11 -45 -5 0 -4
6 -6 13 -4 6 3 18 -5 26 -17 7 -13 10 -20 6 -16 -5 4 -15 2 -23 -5 -13 -10
-14 -9 -8 2 10 16 -12 33 -36 25 -9 -2 -19 0 -22 5 -4 6 -14 7 -24 4 -15 -5
-14 -3 3 18 32 38 49 49 69 43 11 -4 16 -2 12 4 -3 6 4 13 16 15 13 2 25 5 27
6 2 0 -2 -5 -8 -13z m86 8 c-3 -3 -12 -4 -19 -1 -8 3 -5 6 6 6 11 1 17 -2 13
-5z m19 -73 c-14 -15 -14 -19 -3 -24 8 -3 19 -2 23 1 5 4 -11 -13 -35 -38 -37
-37 -52 -45 -86 -47 -22 -1 -34 1 -27 4 6 2 12 10 12 16 1 7 28 33 61 60 64
49 84 60 55 28z m71 2 c-14 -14 -19 -15 -29 -4 -11 10 -10 11 3 6 10 -4 20 -2
24 4 3 6 9 11 13 11 3 0 -1 -8 -11 -17z m-427 -7 c0 -2 -8 -10 -17 -17 -16
-13 -17 -12 -4 4 13 16 21 21 21 13z m555 -11 c-34 -11 -36 -13 -15 -15 14 -1
32 -2 40 -1 11 1 10 -2 -3 -10 -10 -6 -30 -8 -45 -5 -22 5 -20 2 11 -15 47
-25 77 -54 68 -65 -13 -19 -91 -74 -103 -74 -8 0 -24 -8 -37 -17 -14 -9 -21
-12 -18 -5 9 13 -24 25 -45 17 -9 -4 -18 0 -21 8 -3 9 1 14 11 13 11 -1 17 6
16 21 0 12 6 25 13 27 9 4 11 1 7 -6 -5 -8 -2 -9 9 -5 9 3 19 1 23 -5 4 -6 3
-8 -4 -4 -6 3 -13 2 -16 -3 -9 -15 18 -20 36 -7 15 11 12 14 -18 31 -30 16
-39 17 -56 6 -11 -7 -17 -8 -13 -2 11 19 -8 12 -32 -11 -13 -12 -23 -17 -23
-12 1 12 102 93 159 126 25 15 57 27 71 27 19 0 16 -3 -15 -14z m7250 -15 c7
-12 -2 -12 -30 0 -19 8 -19 9 2 9 12 1 25 -3 28 -9z m-5352 -7 c-13 -2 -33 -2
-45 0 -13 2 -3 4 22 4 25 0 35 -2 23 -4z m5454 1 c-3 -3 -12 -4 -19 -1 -8 3
-5 6 6 6 11 1 17 -2 13 -5z m-7944 -19 c-3 -9 -8 -14 -10 -11 -3 3 -2 9 2 15
9 16 15 13 8 -4z m2324 -17 c-3 -8 -6 -5 -6 6 -1 11 2 17 5 13 3 -3 4 -12 1
-19z m88 -15 c-4 -21 -8 -39 -10 -41 -1 -2 -41 -2 -87 0 l-85 3 13 35 14 35
-6 -32 -6 -33 76 0 c81 0 81 0 79 58 -1 6 4 12 9 12 6 0 8 -14 3 -37z m-228 5
c-3 -8 -6 -5 -6 6 -1 11 2 17 5 13 3 -3 4 -12 1 -19z m-1350 6 c-3 -3 -12 -4
-19 -1 -8 3 -5 6 6 6 11 1 17 -2 13 -5z m1683 2 c0 -3 -4 -8 -10 -11 -5 -3
-10 -1 -10 4 0 6 5 11 10 11 6 0 10 -2 10 -4z m-1780 -16 c8 -5 13 -10 10 -10
-3 0 -20 -4 -38 -9 -20 -6 -32 -6 -32 0 0 5 9 9 21 9 11 0 17 5 14 10 -8 13 5
13 25 0z m1557 -6 c-3 -3 -12 -4 -19 -1 -8 3 -5 6 6 6 11 1 17 -2 13 -5z
m5805 -19 c164 -21 319 -80 331 -125 3 -11 1 -18 -3 -15 -4 3 -13 -8 -18 -24
-6 -16 -23 -38 -39 -47 -15 -10 -51 -38 -80 -62 l-51 -43 -64 36 c-100 57
-200 103 -251 115 l-47 12 23 18 c12 9 35 24 51 32 l29 15 -56 2 c-45 1 -61
-3 -77 -19 -22 -22 -49 -25 -100 -10 -61 18 -183 31 -230 23 -39 -6 -42 -7
-20 -14 14 -4 44 -7 68 -8 45 -1 179 -25 222 -40 14 -5 50 -16 80 -25 30 -9
64 -21 75 -25 111 -49 163 -75 195 -101 21 -16 43 -30 49 -30 18 0 12 -18 -8
-25 -44 -14 -280 -232 -328 -303 -12 -18 -18 -20 -25 -10 -6 10 -10 7 -14 -9
-4 -13 -11 -20 -16 -17 -6 4 -14 0 -19 -7 -4 -7 -11 -10 -15 -6 -4 3 -1 13 6
22 7 8 10 21 7 30 -4 8 -1 18 6 22 13 9 37 48 37 60 0 4 -11 -5 -25 -20 -32
-33 -35 -33 -35 -2 0 17 4 23 14 19 8 -3 17 -1 21 5 3 6 19 11 36 11 16 0 29
5 29 11 0 6 -9 8 -22 4 -18 -5 -20 -4 -8 4 13 10 13 12 0 21 -8 5 -20 10 -27
10 -7 0 -10 7 -6 16 5 14 3 15 -14 6 -11 -6 -33 -10 -49 -9 -24 2 -29 -2 -28
-20 0 -19 -2 -20 -20 -11 -21 11 -21 11 -1 -11 13 -16 16 -24 8 -29 -17 -10
24 -72 47 -72 20 0 23 -41 3 -47 -7 -3 -9 3 -6 17 3 11 2 20 -3 19 -28 -5 -43
2 -38 19 2 9 -1 7 -7 -5 -15 -29 -54 -32 -46 -4 4 18 3 18 -34 2 -50 -23 -62
-35 -26 -29 18 4 27 1 27 -8 0 -7 -6 -11 -12 -9 -7 3 -20 0 -28 -5 -13 -9 -13
-11 0 -20 8 -5 23 -10 32 -10 30 0 49 -12 59 -36 4 -13 15 -24 24 -24 8 0 15
-5 15 -11 0 -5 -4 -8 -9 -5 -15 10 -40 -5 -35 -19 7 -18 -49 -29 -76 -15 -15
8 -25 8 -34 1 -7 -6 -16 -8 -19 -4 -4 3 -7 -2 -7 -12 0 -15 2 -16 17 -4 10 9
18 10 20 3 4 -13 106 -2 126 14 12 10 16 10 20 -2 7 -19 -6 -28 -27 -20 -10 4
-16 1 -16 -9 0 -10 8 -15 20 -14 11 1 20 6 20 11 0 5 3 6 7 3 3 -4 12 -2 20 4
9 8 13 8 13 1 0 -6 8 -12 18 -14 14 -3 13 -5 -6 -10 -12 -3 -20 -2 -16 3 3 5
1 9 -5 9 -17 0 -24 -22 -10 -31 9 -6 0 -9 -28 -9 -36 0 -43 -3 -43 -20 0 -13
6 -20 18 -19 10 0 12 3 5 6 -24 9 -13 18 22 19 20 1 44 9 55 19 18 16 20 17
20 2 0 -10 -7 -17 -15 -17 -8 0 -15 -5 -15 -11 0 -5 -3 -8 -7 -6 -5 3 -17 1
-28 -4 -17 -6 -15 -8 11 -8 16 -1 36 5 43 12 11 10 13 9 9 -3 -3 -11 -24 -16
-84 -18 -118 -5 -354 28 -354 49 0 4 7 6 16 2 14 -5 15 -1 9 25 -3 18 -1 40 5
52 8 15 8 25 1 34 -9 10 -6 12 14 8 14 -2 25 -1 24 4 -4 23 2 36 15 31 22 -9
28 5 8 20 -15 12 -13 13 18 8 71 -11 109 -12 104 -4 -3 5 -17 9 -32 9 -49 0
-255 47 -361 83 -113 38 -147 59 -155 97 -3 14 -3 19 0 12 8 -16 25 -5 18 12
-5 14 31 68 91 134 59 67 223 224 256 246 52 35 351 128 479 149 54 9 160 6
262 -8z m-7782 -4 c0 -5 -7 -14 -15 -21 -12 -10 -15 -10 -15 2 0 8 3 18 7 21
9 10 23 9 23 -2z m517 3 c-3 -3 -12 -4 -19 -1 -8 3 -5 6 6 6 11 1 17 -2 13 -5z
m1191 -1 c-16 -2 -40 -2 -55 0 -16 2 -3 4 27 4 30 0 43 -2 28 -4z m95 0 c-7
-2 -19 -2 -25 0 -7 3 -2 5 12 5 14 0 19 -2 13 -5z m-1023 -13 c18 -12 2 -12
-25 0 -13 6 -15 9 -5 9 8 0 22 -4 30 -9z m-380 -20 c-36 -11 -52 -11 -45 0 3
6 21 10 38 9 31 -1 31 -1 7 -9z m50 6 c0 -3 -4 -8 -10 -11 -5 -3 -10 -1 -10 4
0 6 5 11 10 11 6 0 10 -2 10 -4z m-320 -28 c0 -7 -5 -6 -13 1 -8 6 -18 7 -22
3 -5 -4 -5 -2 -1 5 8 14 36 6 36 -9z m6580 12 c-8 -5 -19 -10 -25 -10 -5 0 -3
5 5 10 8 5 20 10 25 10 6 0 3 -5 -5 -10z m-6759 -23 c-10 -9 -11 -8 -5 6 3 10
9 15 12 12 3 -3 0 -11 -7 -18z m467 -6 c-8 -10 -3 -8 11 4 19 16 25 17 29 6 4
-11 6 -11 13 0 4 7 11 11 14 7 8 -8 -84 -77 -102 -78 -7 0 -13 -6 -13 -14 0
-22 -19 -30 -26 -11 -7 16 24 47 38 39 4 -2 10 1 14 7 5 8 -1 10 -22 6 -15 -3
-39 -1 -53 4 -25 10 -46 -5 -34 -25 3 -5 1 -6 -6 -2 -6 4 -14 1 -17 -8 -3 -8
-12 -17 -20 -20 -8 -3 0 12 18 34 18 22 39 40 46 40 7 0 11 4 8 9 -3 5 1 11 9
15 8 3 19 -2 24 -12 9 -16 10 -16 16 0 4 9 13 14 21 11 8 -3 14 0 14 6 0 6 7
8 15 5 13 -5 13 -9 3 -23z m112 19 c-20 -13 -33 -13 -25 0 3 6 14 10 23 10 15
0 15 -2 2 -10z m446 -15 c65 -27 129 -82 150 -127 10 -24 23 -46 29 -50 6 -5
5 -8 -3 -8 -8 0 -11 -9 -8 -22 15 -73 16 -92 5 -81 -6 6 -13 38 -16 72 -3 33
-10 58 -14 55 -5 -3 -7 1 -4 8 3 7 -9 27 -26 43 -16 17 -41 40 -53 52 -51 50
-170 75 -253 53 -104 -27 -252 -117 -237 -142 4 -7 2 -8 -4 -4 -14 8 -52 -14
-52 -31 0 -7 -6 -16 -13 -20 -7 -4 -21 -19 -30 -33 -23 -33 -22 -13 2 36 36
74 156 171 254 206 62 22 213 18 273 -7z m848 -7 c-4 -13 -10 -39 -13 -58 l-6
-35 -122 -3 -121 -3 15 61 15 60 120 0 c119 0 119 0 112 -22z m134 8 c7 -4 12
-15 12 -24 -1 -15 -2 -15 -15 2 -16 21 -19 18 -9 -8 3 -9 17 -16 31 -16 22 0
24 -4 21 -37 l-3 -38 -55 -1 -55 -1 50 7 c37 5 42 7 20 9 -16 2 -24 5 -17 8 6
2 12 11 12 19 0 8 5 14 10 14 6 0 9 -5 8 -11 -2 -6 3 -14 10 -16 7 -3 12 3 12
15 0 22 -35 33 -67 21 -13 -5 -20 -3 -20 6 0 8 5 13 11 12 5 -1 12 6 14 16 2
12 -3 17 -16 17 -18 0 -21 -9 -27 -65 -5 -42 -11 -64 -19 -62 -6 3 -9 11 -7
18 2 8 8 34 13 59 5 25 11 51 13 57 4 13 51 13 73 -1z m712 5 c0 -13 -30 -22
-43 -14 -7 4 -2 10 13 14 14 4 26 7 28 8 1 1 2 -3 2 -8z m-290 -8 c-30 -3 -59
-8 -66 -14 -6 -5 -14 -6 -17 -2 -18 17 -1 23 66 21 66 -2 67 -2 17 -5z m230
-12 c0 -10 8 -25 17 -32 11 -10 14 -10 9 -1 -4 7 -1 12 9 12 23 0 14 -21 -13
-31 -16 -6 -22 -5 -22 5 0 7 -9 21 -19 30 -19 17 -20 17 -23 -11 -2 -19 -8
-28 -20 -27 -10 1 -18 -2 -18 -7 0 -10 25 -13 83 -10 40 2 46 -8 22 -33 -11
-11 -31 -14 -68 -12 -29 2 -62 4 -74 5 -20 1 -20 4 -10 36 7 23 15 34 24 31 7
-3 13 -1 13 4 0 6 -4 10 -9 10 -5 0 -8 11 -8 25 0 24 3 25 53 25 46 0 54 -3
54 -19z m288 -38 c-13 -87 -8 -83 -104 -83 l-86 0 6 33 c4 17 9 49 13 70 l6
37 87 0 87 0 -9 -57z m232 40 c0 -10 -3 -42 -6 -70 l-7 -53 -85 0 -85 0 7 46
c3 26 6 57 6 70 0 23 2 24 85 24 74 0 85 -2 85 -17z m214 -40 c-9 -87 -5 -83
-90 -83 l-76 0 5 58 c4 31 6 63 7 70 0 8 23 12 80 12 l80 0 -6 -57z m212 20
c-3 -21 -6 -53 -6 -70 l0 -33 -81 0 -82 0 7 46 c3 26 6 57 6 70 0 23 3 24 81
24 l82 0 -7 -37z m220 -33 l-1 -70 -83 0 -83 0 3 70 2 70 82 0 81 0 -1 -70z
m224 53 c0 -10 3 -42 6 -70 l7 -53 -92 0 -91 0 0 70 0 70 85 0 c74 0 85 -2 85
-17z m224 0 c3 -10 6 -40 8 -68 l2 -49 -79 2 c-44 2 -83 6 -87 10 -3 4 -8 33
-10 65 l-3 57 82 0 c69 0 82 -3 87 -17z m244 -30 c2 -27 5 -56 8 -65 4 -15 -1
-18 -28 -20 -18 0 -61 -2 -95 -4 l-63 -3 0 32 c0 18 -3 49 -6 70 l-7 37 95 0
94 0 2 -47z m345 10 c3 -21 8 -48 11 -60 5 -22 2 -23 -62 -24 -37 -1 -102 -3
-144 -5 -43 -2 -79 0 -81 4 -3 4 -8 33 -11 65 l-7 57 144 0 144 0 6 -37z
m1824 31 c-3 -3 -12 -4 -19 -1 -8 3 -5 6 6 6 11 1 17 -2 13 -5z m-4637 -25 c0
-6 -4 -7 -10 -4 -5 3 -10 11 -10 16 0 6 5 7 10 4 6 -3 10 -11 10 -16z m217 15
c-3 -3 -12 -4 -19 -1 -8 3 -5 6 6 6 11 1 17 -2 13 -5z m4370 0 c-3 -3 -12 -4
-19 -1 -8 3 -5 6 6 6 11 1 17 -2 13 -5z m198 -4 c-3 -5 -12 -10 -18 -10 -7 0
-6 4 3 10 19 12 23 12 15 0z m-285 -10 c-14 -4 -43 -8 -65 -8 l-40 1 40 7 c22
4 51 7 65 8 l25 0 -25 -8z m-6346 -18 c3 -5 -1 -9 -9 -9 -8 0 -12 4 -9 9 3 4
7 8 9 8 2 0 6 -4 9 -8z m2173 -9 c-11 -10 13 -33 34 -33 14 0 19 -7 19 -26 0
-26 -1 -26 -47 -19 -49 7 -66 20 -58 43 3 8 5 17 5 22 0 5 8 11 18 13 27 7 36
7 29 0z m-2002 -31 c-3 -3 -11 0 -18 7 -9 10 -8 11 6 5 10 -3 15 -9 12 -12z
m570 8 c4 -6 11 -8 16 -5 5 4 9 1 9 -5 0 -7 7 -9 16 -6 20 8 54 -10 54 -29 0
-7 6 -16 13 -19 9 -5 9 -7 -1 -12 -9 -4 -7 -11 9 -25 30 -25 37 -24 13 2 -19
22 -19 22 2 11 23 -12 40 -42 23 -42 -6 0 -6 -6 0 -17 19 -38 33 -167 22 -208
-6 -22 -11 -51 -10 -65 0 -23 1 -23 9 -5 14 33 11 2 -5 -53 -15 -51 -44 -89
-31 -41 l7 24 -18 -24 c-10 -12 -25 -42 -34 -65 -10 -28 -20 -40 -32 -38 -9 1
-23 -8 -32 -21 -8 -13 -41 -41 -73 -62 -31 -22 -59 -40 -61 -42 -2 -2 -1 -6 3
-10 4 -4 10 -2 14 4 10 15 60 24 64 12 2 -6 16 1 31 14 22 19 24 23 10 22 -10
-1 -28 -7 -40 -13 -15 -8 -23 -9 -23 -2 0 5 6 10 14 10 7 0 19 7 26 15 7 8 23
15 37 15 37 0 25 -26 -32 -68 -37 -28 -47 -32 -42 -18 8 20 8 20 -14 0 -12
-10 -19 -13 -14 -5 6 10 2 12 -16 6 -13 -4 -29 -12 -36 -17 -6 -5 -25 -10 -42
-10 -52 -2 -34 -18 19 -18 28 0 50 5 50 10 0 6 -5 10 -12 10 -6 0 -9 3 -6 6 4
3 16 0 28 -6 38 -20 4 -30 -107 -30 -97 0 -153 12 -153 33 0 5 7 4 15 -3 8 -7
41 -14 72 -16 l58 -3 -65 20 c-36 12 -67 23 -69 25 -11 11 9 13 39 4 18 -5 52
-12 74 -15 l41 -5 -35 20 c-19 10 -45 19 -58 20 -39 0 -116 46 -151 90 -99
123 -70 325 72 502 33 41 126 110 172 126 17 6 23 11 15 13 -26 3 52 16 107
18 28 0 55 -4 58 -9z m1525 6 c0 -9 -30 -14 -35 -6 -4 6 3 10 14 10 12 0 21
-2 21 -4z m4147 -2 c-3 -3 -12 -4 -19 -1 -8 3 -5 6 6 6 11 1 17 -2 13 -5z
m-6241 -46 c-3 -21 -8 -24 -36 -19 -17 2 -11 16 13 27 12 7 23 12 24 13 2 0 1
-9 -1 -21z m2089 12 c-3 -5 -11 -10 -16 -10 -6 0 -7 5 -4 10 3 6 11 10 16 10
6 0 7 -4 4 -10z m-2125 -53 c0 -6 -7 -21 -15 -31 -15 -20 -15 -20 -15 0 0 11
-4 24 -10 30 -6 6 -1 10 15 12 14 1 25 -3 25 -11z m1405 -7 c3 -5 -3 -10 -15
-10 -29 0 -60 -18 -60 -34 0 -7 15 -21 33 -30 32 -15 31 -16 -65 -16 l-98 0
10 25 c31 80 21 73 109 74 44 1 83 -3 86 -9z m1028 0 l39 0 -7 -42 c-4 -24
-13 -48 -21 -54 -8 -6 -14 -16 -14 -23 0 -18 -105 -14 -120 4 -11 13 -15 13
-22 3 -8 -12 -7 -2 7 67 3 14 5 28 4 31 -2 15 28 24 61 19 19 -2 52 -5 73 -5z
m283 -19 c-3 -15 -8 -45 -11 -68 l-7 -43 -90 0 -90 0 7 58 c10 81 14 84 112
81 l84 -3 -5 -25z m193 23 c30 -6 31 -9 31 -56 0 -80 -7 -86 -101 -87 l-81 -1
6 48 c15 106 12 102 66 102 26 0 62 -3 79 -6z m238 -8 c1 -1 0 -32 -4 -69 l-6
-66 -73 2 c-41 1 -75 4 -75 7 -1 3 1 36 5 73 l8 68 71 -6 c39 -3 72 -7 74 -9z
m228 0 c0 0 -1 -31 -3 -67 l-4 -66 -84 -2 -84 -2 0 70 c0 58 3 70 18 73 15 3
156 -2 157 -6z m222 0 c1 -1 3 -32 6 -69 3 -56 1 -67 -10 -62 -8 3 -48 5 -89
5 l-74 0 0 64 c0 53 3 65 18 69 13 4 142 -2 149 -7z m258 2 c1 -2 5 -31 7 -65
l4 -63 -103 0 -103 0 0 63 c0 35 3 67 8 71 6 8 180 2 187 -6z m211 4 c6 -4 14
-35 18 -69 l7 -63 -86 0 -85 0 0 49 c0 27 -3 56 -6 65 -4 11 3 16 33 19 69 7
108 7 119 -1z m488 -50 c5 -29 7 -54 5 -56 -6 -5 -260 -20 -344 -21 l-70 0 -6
60 c-3 33 -5 62 -3 65 1 3 94 5 206 5 l203 0 9 -53z m-2320 21 c-3 -16 -6 -37
-8 -47 -2 -11 -8 -22 -14 -24 -7 -2 -12 -8 -12 -13 0 -6 5 -7 10 -4 6 3 10 1
10 -5 0 -7 -25 -10 -72 -8 -72 3 -73 3 -78 33 -3 17 -2 45 4 63 l9 32 78 0 79
0 -6 -27z m-1341 -85 c3 -24 2 -38 -5 -38 -5 0 -8 -6 -5 -12 2 -7 1 -22 -3
-33 -4 -11 -7 22 -7 74 1 89 7 91 20 9z m857 22 c-14 -4 -36 -8 -50 -8 -22 0
-22 1 5 8 17 4 39 8 50 8 16 0 15 -2 -5 -8z m215 0 c16 -1 14 -3 -7 -10 -29
-9 -108 -2 -108 9 0 6 57 6 115 1z m-1854 -67 c-12 -20 -14 -14 -5 12 4 9 9
14 11 11 3 -2 0 -13 -6 -23z m702 7 c3 -11 1 -20 -4 -20 -5 0 -9 2 -9 4 0 2
-3 11 -6 20 -3 9 -2 16 4 16 5 0 12 -9 15 -20z m553 -25 c16 -8 41 -15 56 -15
15 0 30 -4 33 -10 3 -5 1 -10 -4 -10 -19 0 -12 -28 9 -35 11 -3 20 -13 20 -21
0 -12 -29 -14 -169 -14 l-169 0 15 60 15 60 83 0 c54 0 93 -5 111 -15z m1188
1 c-5 -14 11 -23 63 -36 30 -7 31 -6 28 21 l-4 29 534 0 535 0 0 -69 0 -69
-572 5 c-315 2 -577 6 -583 8 -5 1 6 7 25 13 l35 11 -40 -1 c-76 -2 -106 2
-100 12 3 6 25 10 47 10 23 0 39 3 35 6 -3 3 -31 6 -61 5 -48 0 -59 3 -81 27
-14 15 -25 30 -25 34 0 5 38 8 85 8 67 0 83 -3 79 -14z m69 7 c-7 -2 -21 -2
-30 0 -10 3 -4 5 12 5 17 0 24 -2 18 -5z m1357 -32 c0 -21 3 -53 6 -70 l7 -31
-112 0 -111 0 0 70 0 70 105 0 105 0 0 -39z m243 32 c2 -5 7 -36 11 -70 l7
-63 -96 0 c-52 0 -95 3 -96 8 0 4 -3 35 -5 70 l-5 62 90 0 c49 0 92 -3 94 -7z
m360 -38 c4 -25 9 -56 13 -70 l6 -25 -150 0 -149 0 -10 70 -9 70 147 0 146 0
6 -45z m-2549 10 c24 -18 31 -49 9 -41 -8 3 -18 6 -21 7 -4 0 2 4 13 9 17 7
17 9 3 9 -10 1 -18 5 -18 10 0 5 -10 12 -22 14 -20 4 -20 4 -3 5 11 1 29 -5
39 -13z m261 -25 c3 -5 1 -10 -4 -10 -6 0 -11 5 -11 10 0 6 2 10 4 10 3 0 8
-4 11 -10z m-245 -45 c0 -10 -9 -15 -27 -14 -24 2 -25 2 -5 6 12 2 22 9 22 14
0 5 2 9 5 9 3 0 5 -7 5 -15z m30 0 c0 -8 -2 -15 -4 -15 -2 0 -6 7 -10 15 -3 8
-1 15 4 15 6 0 10 -7 10 -15z m-273 -11 c-3 -3 -12 -4 -19 -1 -8 3 -5 6 6 6
11 1 17 -2 13 -5z m-1730 -51 c-3 -10 -5 -4 -5 12 0 17 2 24 5 18 2 -7 2 -21
0 -30z m1525 -45 c8 -5 3 -8 -14 -8 -16 0 -28 -5 -28 -11 0 -5 4 -8 9 -5 5 3
14 -1 21 -9 7 -8 26 -15 42 -15 16 0 27 -4 23 -9 -3 -5 3 -11 12 -13 13 -3 9
-9 -17 -20 -22 -10 -28 -17 -17 -17 10 -1 27 3 37 9 15 8 17 6 13 -10 -5 -17
-14 -19 -104 -17 -59 1 -100 -2 -103 -8 -2 -5 -7 -6 -12 -2 -5 5 -1 13 9 18 9
6 17 15 17 20 0 6 -4 7 -10 4 -5 -3 -10 -2 -10 4 0 5 -9 13 -20 16 -11 4 -18
10 -15 15 3 4 -2 11 -11 14 -9 3 -14 13 -11 21 7 18 -21 27 -61 20 -17 -3 -34
0 -37 5 -8 13 268 11 287 -2z m5538 -13 c0 -8 -4 -15 -10 -15 -5 0 -7 7 -4 15
4 8 8 15 10 15 2 0 4 -7 4 -15z m-7063 -52 c-3 -10 -5 -4 -5 12 0 17 2 24 5
18 2 -7 2 -21 0 -30z m764 -44 c-5 -13 -10 -19 -10 -12 -1 15 10 45 15 40 3
-2 0 -15 -5 -28z m-41 -31 c-11 -25 -26 -51 -34 -57 -7 -6 0 15 17 48 37 69
46 74 17 9z m1377 37 c0 -11 -11 -15 -36 -14 l-36 0 35 13 c19 8 35 14 36 15
0 0 1 -6 1 -14z m523 -15 c0 -5 -9 -14 -19 -19 -17 -10 -18 -8 -8 13 11 23 27
26 27 6z m-1877 -35 c-3 -9 -8 -14 -10 -11 -3 3 -2 9 2 15 9 16 15 13 8 -4z
m2310 -2 c-7 -2 -19 -2 -25 0 -7 3 -2 5 12 5 14 0 19 -2 13 -5z m179 0 c-32
-4 -33 -5 -15 -19 17 -13 16 -13 -6 -6 -43 15 -37 32 11 30 38 -1 39 -2 10 -5z
m191 0 c-7 -2 -21 -2 -30 0 -10 3 -4 5 12 5 17 0 24 -2 18 -5z m270 0 c-7 -2
-19 -2 -25 0 -7 3 -2 5 12 5 14 0 19 -2 13 -5z m-603 -23 c0 -5 -6 -10 -14
-10 -8 0 -18 5 -21 10 -3 6 3 10 14 10 12 0 21 -4 21 -10z m-1463 -32 c-3 -7
-5 -2 -5 12 0 14 2 19 5 13 2 -7 2 -19 0 -25z m-1509 -42 c16 -20 12 -18 -12
8 -20 22 -36 44 -35 50 0 6 6 3 12 -8 7 -10 23 -33 35 -50z m1559 -18 c-2 -18
-4 -6 -4 27 0 33 2 48 4 33 2 -15 2 -42 0 -60z m60 76 c-3 -3 -12 -4 -19 -1
-8 3 -5 6 6 6 11 1 17 -2 13 -5z m4910 -71 c-2 -16 -4 -3 -4 27 0 30 2 43 4
28 2 -16 2 -40 0 -55z m-647 43 c0 -8 6 -14 13 -13 41 1 50 -3 37 -18 -14 -17
-45 -21 -35 -5 3 6 1 10 -4 10 -6 0 -11 -13 -11 -30 0 -16 -4 -30 -9 -30 -5 0
-5 15 -1 35 4 20 4 35 -1 35 -5 0 -9 9 -9 21 0 11 5 17 10 14 6 -3 10 -12 10
-19z m-3410 -1 c-7 -9 -15 -13 -19 -10 -3 3 1 10 9 15 21 14 24 12 10 -5z
m400 11 c0 -2 -9 -6 -20 -9 -11 -3 -18 -1 -14 4 5 9 34 13 34 5z m3107 -18
c-3 -8 -6 -5 -6 6 -1 11 2 17 5 13 3 -3 4 -12 1 -19z m-4360 -40 c-2 -13 -4
-5 -4 17 -1 22 1 32 4 23 2 -10 2 -28 0 -40z m616 37 c-3 -9 -8 -14 -10 -11
-3 3 -2 9 2 15 9 16 15 13 8 -4z m277 11 c0 -3 -4 -8 -10 -11 -5 -3 -10 -1
-10 4 0 6 5 11 10 11 6 0 10 -2 10 -4z m-1009 -49 c-9 -9 -10 -5 -7 13 6 36 8
37 13 16 3 -10 0 -23 -6 -29z m939 27 c0 -2 -9 -4 -21 -4 -11 0 -18 4 -14 10
5 8 35 3 35 -6z m505 6 c-3 -5 3 -10 15 -10 12 0 18 -4 15 -10 -3 -6 4 -10 17
-11 22 0 22 -1 3 -9 -30 -13 -35 -12 -35 6 0 12 -3 14 -12 6 -19 -15 -30 -15
-39 -1 -4 8 -1 18 9 26 20 15 36 17 27 3z m-2440 -30 c-16 -16 -32 -30 -37
-30 -8 0 53 59 61 60 3 0 -8 -13 -24 -30z m2625 -5 c5 3 11 1 15 -5 4 -6 -4
-10 -18 -10 -21 0 -24 4 -19 23 5 18 7 19 10 4 2 -9 7 -15 12 -12z m-50 0 c7
-9 8 -15 2 -15 -5 0 -12 7 -16 15 -3 8 -4 15 -2 15 2 0 9 -7 16 -15z m3325 5
c13 -6 15 -9 5 -9 -8 0 -22 4 -30 9 -18 12 -2 12 25 0z m-6444 -17 c13 -16 12
-17 -3 -4 -10 7 -18 15 -18 17 0 8 8 3 21 -13z m90 -10 c13 -16 12 -17 -3 -4
-10 7 -18 15 -18 17 0 8 8 3 21 -13z m-1241 2 c0 -2 -10 -10 -22 -16 -21 -11
-22 -11 -9 4 13 16 31 23 31 12z m2690 -5 c0 -5 -8 -10 -17 -10 -15 0 -16 2
-3 10 19 12 20 12 20 0z m4495 0 c4 -6 -6 -10 -22 -9 -25 0 -26 1 -8 9 11 5
21 9 22 9 1 1 5 -3 8 -9z m506 -8 c-7 -2 -18 1 -23 6 -8 8 -4 9 13 5 13 -4 18
-8 10 -11z m-6506 -2 c3 -5 1 -10 -4 -10 -6 0 -11 5 -11 10 0 6 2 10 4 10 3 0
8 -4 11 -10z m1625 0 c0 -5 -5 -10 -11 -10 -5 0 -7 5 -4 10 3 6 8 10 11 10 2
0 4 -4 4 -10z m1257 4 c-3 -3 -12 -4 -19 -1 -8 3 -5 6 6 6 11 1 17 -2 13 -5z
m4896 -31 c-7 -2 -19 -2 -25 0 -7 3 -2 5 12 5 14 0 19 -2 13 -5z m-7126 -25
c-1 -15 5 -23 25 -29 17 -4 28 -3 31 4 2 8 6 7 11 -1 11 -18 -41 -35 -74 -24
-22 8 -29 6 -38 -9 -8 -12 -8 -19 -2 -19 5 0 9 -6 8 -12 -4 -16 43 -23 52 -8
5 9 9 9 14 1 4 -6 2 -11 -3 -11 -6 0 -11 -4 -11 -8 0 -10 97 1 107 13 5 4 0 5
-9 2 -19 -7 -23 1 -10 18 11 16 91 14 85 -2 -3 -7 -10 -13 -16 -13 -7 0 -8 -3
-1 -10 6 -6 25 -7 43 -4 28 6 31 8 16 17 -12 7 -20 5 -27 -4 -8 -11 -9 -11 -5
1 5 18 71 30 106 20 16 -5 19 -9 9 -9 -10 -1 -18 -7 -18 -13 0 -9 -4 -8 -11 2
-8 12 -10 12 -7 1 2 -8 20 -20 39 -26 19 -7 32 -16 29 -21 -3 -5 15 -15 40
-23 25 -8 47 -18 48 -23 2 -4 8 -5 13 -2 6 3 21 -2 36 -11 14 -9 23 -13 19 -7
-3 5 0 15 8 21 11 9 15 9 18 -1 3 -7 11 -13 19 -14 50 -4 55 -6 29 -14 -23 -8
-22 -9 10 -8 19 0 62 -1 95 -2 50 -2 55 -4 30 -10 -34 -9 -14 -13 45 -10 37 2
33 -13 -5 -24 -24 -7 26 2 59 10 19 5 26 1 31 -16 5 -17 10 -19 18 -11 9 9 8
14 -3 21 -11 7 -7 10 18 10 33 0 44 -16 17 -26 -13 -5 -12 -10 6 -25 l22 -19
-24 -2 c-13 0 -37 -2 -54 -3 -16 -2 -35 1 -41 6 -13 10 -44 2 -44 -12 0 -5 -8
-9 -17 -8 -11 0 -13 3 -5 6 20 8 14 23 -10 23 -18 0 -20 2 -8 10 8 5 11 12 7
16 -3 4 -12 2 -19 -3 -7 -6 -23 -9 -35 -8 -13 1 -23 -2 -23 -6 0 -5 -12 -4
-26 1 -35 14 -44 13 -44 -6 0 -10 -4 -12 -12 -7 -23 14 -61 14 -69 1 -7 -10
-12 -11 -28 -1 -11 7 -21 8 -23 3 -2 -5 -49 -10 -106 -11 -75 -1 -105 -5 -109
-14 -2 -8 -17 -12 -34 -11 -17 1 -52 -1 -78 -4 l-49 -6 4 30 c4 27 3 29 -8 15
-9 -11 -20 -14 -33 -9 -11 4 -27 5 -35 2 -9 -3 -7 1 4 10 19 15 18 15 -15 15
-19 -1 -38 -6 -42 -12 -5 -6 -6 -3 -3 8 5 15 2 17 -15 12 -15 -5 -19 -4 -14 4
4 8 -6 11 -34 9 -25 -2 -41 -8 -41 -15 0 -7 -5 -13 -11 -13 -6 0 -17 -7 -25
-15 -17 -17 -59 -21 -49 -5 4 6 13 9 20 8 8 -2 15 2 16 7 2 6 -10 13 -27 16
-16 4 -23 7 -16 8 7 0 11 5 8 10 -3 5 -16 7 -29 4 -18 -4 -19 -3 -7 6 9 7 10
11 3 11 -6 0 -15 -5 -19 -11 -3 -6 -17 -8 -31 -4 -14 3 -22 2 -19 -3 3 -5 -8
-6 -25 -4 -33 5 -39 -12 -10 -28 13 -7 22 -7 26 0 3 5 18 9 33 9 20 -1 22 -2
7 -6 -44 -10 -51 -15 -31 -22 19 -7 19 -8 -2 -13 -12 -4 -20 -3 -17 2 6 10
-47 20 -73 13 -24 -6 -72 20 -72 40 0 8 -14 12 -42 10 -34 -2 -38 -1 -18 6 24
8 24 8 -10 15 -39 8 -96 45 -69 46 8 0 21 -6 28 -12 11 -11 13 -10 9 2 -2 8
-19 19 -36 25 -44 13 -40 25 7 25 40 0 62 14 39 23 -7 3 -4 6 8 6 11 1 40 -16
64 -36 44 -38 80 -50 80 -26 0 8 -6 13 -12 12 -29 -3 -46 2 -52 17 -3 8 -2 13
3 9 5 -3 12 1 14 7 3 8 6 6 6 -4 1 -11 9 -18 20 -18 28 0 37 20 9 21 -23 1
-23 1 2 9 17 5 19 8 8 9 -10 1 -18 6 -18 11 0 6 8 10 18 10 14 0 15 2 2 10
-13 9 -13 11 0 20 8 5 23 10 32 10 9 0 20 5 23 11 4 6 13 8 20 5 7 -2 25 2 40
10 15 8 41 14 57 14 16 0 38 5 49 10 13 8 19 7 19 0 0 -6 5 -8 13 -3 12 8 22
10 67 15 14 2 28 7 32 12 4 6 25 9 47 8 21 -2 42 2 46 8 10 16 15 12 12 -12z
m93 -52 c0 -3 -4 -8 -10 -11 -5 -3 -10 -1 -10 4 0 6 5 11 10 11 6 0 10 -2 10
-4z m138 -3 c-15 -2 -42 -2 -60 0 -18 2 -6 4 27 4 33 0 48 -2 33 -4z m319 -36
c3 -4 -10 -7 -30 -7 -20 0 -39 5 -42 10 -7 12 60 8 72 -3z m-1070 -3 c-3 -3
-12 -4 -19 -1 -8 3 -5 6 6 6 11 1 17 -2 13 -5z m43 -3 c0 -12 -20 -25 -27 -18
-7 7 6 27 18 27 5 0 9 -4 9 -9z m7173 -8 c-7 -2 -19 -2 -25 0 -7 3 -2 5 12 5
14 0 19 -2 13 -5z m-1355 -12 c9 -5 4 -8 -16 -7 -17 1 -28 4 -25 9 6 9 25 9
41 -2z m95 -8 c-7 -2 -19 -2 -25 0 -7 3 -2 5 12 5 14 0 19 -2 13 -5z m-7008
-31 c-6 -7 -34 11 -29 19 3 5 11 3 19 -4 7 -6 12 -13 10 -15z m6172 22 c-3 -3
-12 -4 -19 -1 -8 3 -5 6 6 6 11 1 17 -2 13 -5z m588 -4 c8 -13 -15 -13 -35 0
-12 8 -11 10 7 10 12 0 25 -4 28 -10z m271 1 c-4 -5 13 -12 36 -16 l42 -7 -39
-21 c-26 -13 -40 -16 -43 -8 -2 6 -10 11 -17 11 -8 0 -17 5 -21 12 -5 8 -2 9
10 5 41 -16 66 -19 66 -7 0 6 -5 8 -10 5 -13 -8 -42 14 -34 26 3 5 7 9 10 9 3
0 3 -4 0 -9z m-5053 -8 c-7 -2 -19 -2 -25 0 -7 3 -2 5 12 5 14 0 19 -2 13 -5z
m4057 -3 c-20 -13 -33 -13 -25 0 3 6 14 10 23 10 15 0 15 -2 2 -10z m520 -22
c0 -5 -7 -8 -15 -8 -17 0 -18 2 -9 25 5 13 8 14 15 3 5 -7 9 -16 9 -20z m55
22 c-3 -5 16 -9 47 -9 77 1 118 -10 128 -35 5 -11 9 -15 9 -8 1 9 13 13 39 12
55 -3 64 -1 57 10 -3 6 6 15 20 20 33 12 35 12 35 0 0 -5 -11 -10 -24 -10 -19
0 -23 -4 -19 -19 3 -14 -2 -19 -24 -23 -53 -9 -156 -3 -160 9 -3 7 3 9 16 6
31 -8 25 3 -10 21 -17 9 -36 13 -42 9 -6 -4 -30 -6 -52 -4 -22 2 -37 0 -33 -4
11 -12 88 -23 88 -14 0 5 5 9 10 9 13 0 12 -11 -1 -30 -8 -11 -12 -12 -16 -2
-6 14 -39 16 -48 2 -3 -5 -17 -10 -30 -10 -13 0 -27 5 -30 10 -10 16 -35 12
-35 -6 0 -8 -4 -12 -10 -9 -5 3 -23 -1 -41 -10 -43 -23 -139 -10 -123 17 4 6
-1 6 -14 -1 -26 -14 -35 -14 -27 -1 4 7 -4 9 -22 6 -15 -3 -39 2 -53 10 -14 8
-18 14 -10 13 53 -5 111 2 104 13 -4 7 -3 8 5 4 6 -4 9 -12 6 -17 -8 -12 28
-12 41 0 5 5 20 12 34 16 24 7 25 7 5 -9 -19 -16 -19 -17 10 -12 51 9 130 10
143 2 18 -11 15 0 -5 20 -17 17 -17 18 0 11 11 -4 17 -2 17 8 0 8 5 15 11 15
5 0 8 -4 4 -10z m262 4 c-3 -3 -12 -4 -19 -1 -8 3 -5 6 6 6 11 1 17 -2 13 -5z
m-1450 -10 c-3 -3 -12 -4 -19 -1 -8 3 -5 6 6 6 11 1 17 -2 13 -5z m270 -10
c29 -4 50 -10 47 -15 -5 -9 10 -11 111 -10 45 0 54 -2 35 -9 l-25 -8 27 -1
c15 -1 30 4 33 9 3 6 19 10 36 10 16 0 29 -4 29 -10 0 -5 14 -10 30 -10 20 0
30 5 30 15 0 18 -12 19 -28 3 -6 -6 -15 -9 -18 -5 -11 11 0 17 35 22 22 2 29
0 24 -8 -3 -7 4 -3 16 7 18 17 21 17 15 3 -5 -14 1 -17 36 -17 37 0 41 -2 30
-15 -11 -13 -8 -15 18 -15 18 0 32 6 34 14 3 13 6 13 22 0 11 -7 17 -16 14
-19 -3 -3 -43 -6 -89 -6 -46 0 -86 -5 -90 -10 -3 -5 -20 -11 -37 -12 -41 -3
-27 -15 23 -20 40 -4 40 -4 -7 -5 -27 -1 -48 -6 -48 -11 0 -20 -33 -20 -50 -1
-10 11 -24 19 -31 18 -9 -2 -13 4 -11 17 2 11 -1 16 -5 10 -8 -11 -63 -14 -63
-4 0 3 10 11 23 18 14 7 15 10 3 6 -13 -4 -17 -1 -13 9 5 13 2 13 -18 4 -14
-6 -25 -16 -25 -22 0 -6 -5 -4 -10 4 -7 11 -12 12 -17 4 -10 -15 -52 -20 -75
-9 -10 4 -43 5 -73 3 -31 -3 -58 -1 -61 4 -10 15 -23 8 -18 -9 5 -15 3 -15
-11 2 -12 16 -18 17 -24 7 -10 -17 -63 -12 -69 7 -3 10 0 12 12 8 10 -4 15 -3
11 3 -10 17 7 11 22 -7 14 -17 14 -17 9 0 -3 9 -2 18 2 18 32 6 52 5 52 -2 0
-5 5 -9 10 -9 6 0 10 11 10 24 0 20 -4 23 -27 20 l-28 -4 25 10 c14 5 41 7 60
4 19 -2 59 -7 87 -10z m800 10 c-3 -3 -12 -4 -19 -1 -8 3 -5 6 6 6 11 1 17 -2
13 -5z m483 -4 c0 -5 -5 -10 -11 -10 -5 0 -7 5 -4 10 3 6 8 10 11 10 2 0 4 -4
4 -10z m-810 -10 c11 -8 8 -9 -14 -6 -16 3 -31 8 -34 11 -10 9 33 5 48 -5z
m65 0 c-3 -5 -14 -10 -23 -10 -15 0 -15 2 -2 10 20 13 33 13 25 0z m95 -6 c0
-2 -7 -4 -15 -4 -8 0 -15 4 -15 10 0 5 7 7 15 4 8 -4 15 -8 15 -10z m-3035
-12 c-3 -3 -27 -7 -52 -7 -26 -1 -49 -7 -51 -13 -2 -7 -8 -9 -14 -6 -6 4 -5
10 3 16 10 7 8 8 -6 3 -11 -4 -35 -9 -53 -12 -27 -5 -31 -3 -26 11 5 14 20 17
86 15 43 -1 81 1 84 4 3 3 12 3 20 0 8 -3 12 -8 9 -11z m1588 11 c-13 -2 -33
-2 -45 0 -13 2 -3 4 22 4 25 0 35 -2 23 -4z m464 1 c-3 -3 -12 -4 -19 -1 -8 3
-5 6 6 6 11 1 17 -2 13 -5z m1810 0 c-3 -3 -12 -4 -19 -1 -8 3 -5 6 6 6 11 1
17 -2 13 -5z m-4277 -8 c0 -2 -7 -7 -16 -10 -8 -3 -12 -2 -9 4 6 10 25 14 25
6z m70 -8 c0 -4 -6 -8 -12 -8 -10 0 -10 -2 0 -9 10 -6 10 -10 -3 -21 -12 -10
-19 -10 -27 -2 -9 9 -8 12 3 13 7 1 3 5 -11 9 l-25 8 25 1 c20 1 22 3 10 11
-11 8 -9 9 13 8 15 -1 27 -6 27 -10z m31 0 c0 -10 2 -10 6 0 2 6 14 12 26 12
18 0 19 -2 7 -11 -12 -8 -10 -10 10 -8 38 2 50 0 50 -9 0 -4 -21 -7 -47 -6
-76 3 -89 5 -75 11 6 2 10 9 6 14 -3 5 0 9 5 9 6 0 11 -6 12 -12z m399 0 c0
-11 -103 -29 -113 -19 -6 6 -4 9 4 8 33 -1 50 4 44 13 -4 6 8 9 29 8 20 -2 36
-6 36 -10z m130 2 c0 -5 -2 -10 -4 -10 -3 0 -8 5 -11 10 -3 6 -1 10 4 10 6 0
11 -4 11 -10z m63 3 c-7 -2 -21 -2 -30 0 -10 3 -4 5 12 5 17 0 24 -2 18 -5z
m42 -3 c3 -5 1 -10 -4 -10 -6 0 -11 5 -11 10 0 6 2 10 4 10 3 0 8 -4 11 -10z
m544 1 c8 -6 -5 -7 -35 -5 -45 4 -47 3 -16 -6 17 -6 32 -14 32 -19 0 -14 -29
-33 -42 -28 -8 4 -7 6 5 6 24 1 22 21 -3 22 -11 1 -24 3 -30 4 -5 1 -15 3 -22
4 -6 0 -3 8 8 16 21 16 81 20 103 6z m64 -6 c-3 -9 -8 -14 -10 -11 -3 3 -2 9
2 15 9 16 15 13 8 -4z m588 1 c19 -8 46 -12 62 -9 19 4 27 1 27 -8 0 -10 2
-11 8 -2 4 6 23 14 43 18 29 5 38 3 43 -10 5 -13 2 -16 -10 -11 -10 4 -14 1
-12 -6 3 -7 22 -13 43 -13 59 -2 57 -25 -2 -26 -26 -1 -38 -4 -27 -6 22 -4 22
-4 -2 -29 -29 -28 -34 -29 -34 -8 0 8 5 12 10 9 6 -3 10 -1 10 4 0 6 -7 11
-15 11 -8 0 -15 -4 -15 -10 0 -5 -9 -10 -19 -10 -11 0 -23 -4 -26 -10 -3 -5
-12 -10 -18 -10 -8 0 -8 3 2 9 18 12 2 19 -34 15 -16 -2 -32 1 -35 5 -3 4 -23
10 -45 14 -22 3 -34 3 -27 0 6 -2 12 -9 12 -14 0 -6 -7 -6 -17 -1 -10 5 -37 9
-61 8 -23 -1 -42 4 -42 9 0 6 -4 4 -9 -3 -4 -7 -14 -14 -22 -15 -8 -2 -19 -6
-26 -10 -6 -4 -14 -3 -17 2 -4 5 8 13 26 16 27 6 29 9 13 17 -12 8 -20 7 -26
-3 -7 -12 -9 -11 -9 1 0 12 -2 12 -9 2 -6 -10 -10 -10 -21 3 -7 8 -20 15 -29
15 -14 -1 -14 -2 1 -14 15 -11 14 -14 -16 -24 -37 -14 -83 -16 -90 -4 -2 4 13
6 35 4 38 -4 57 13 22 20 -32 6 -73 -4 -73 -18 0 -8 -5 -14 -11 -14 -5 0 -7
-6 -3 -12 5 -9 2 -9 -9 1 -9 7 -17 19 -17 25 0 6 4 5 9 -3 6 -9 11 -10 15 -2
4 6 4 11 -1 12 -4 0 -16 2 -26 4 -13 2 -17 -1 -13 -11 3 -8 -1 -14 -9 -14 -8
0 -12 8 -10 20 2 11 0 20 -6 20 -5 0 -9 4 -9 9 0 5 8 8 17 7 10 0 20 9 24 24
7 25 7 25 8 -4 1 -21 5 -27 16 -22 8 3 27 1 42 -5 20 -7 29 -7 32 2 2 8 5 8
11 -1 9 -15 30 -5 30 14 0 9 -9 12 -24 9 -13 -3 -27 0 -30 6 -5 7 7 11 36 11
68 0 115 -11 137 -31 28 -26 68 -25 76 2 4 13 2 25 -5 29 -8 5 -7 9 4 13 10 4
16 1 16 -7 0 -8 11 -13 28 -13 15 0 21 2 15 4 -19 7 -16 21 5 26 32 9 49 7 83
-7z m2303 8 c9 -3 16 -11 16 -16 0 -6 -6 -5 -15 2 -8 6 -20 8 -26 4 -8 -4 -9
-3 -5 4 8 14 9 14 30 6z m-3670 -13 c9 -15 -29 -19 -42 -4 -11 11 -8 13 12 13
14 0 27 -4 30 -9z m550 -6 c4 -12 2 -13 -12 -7 -9 5 -24 12 -32 15 -9 3 -4 6
11 6 15 1 29 -6 33 -14z m519 8 c-7 -2 -21 -2 -30 0 -10 3 -4 5 12 5 17 0 24
-2 18 -5z m124 0 c-4 -3 0 -15 10 -25 9 -10 12 -18 7 -18 -12 0 -34 36 -27 44
4 3 9 6 11 6 3 0 2 -3 -1 -7z m429 -10 c-3 -7 -1 -13 5 -13 6 0 7 -4 4 -10 -3
-5 -4 -10 -1 -10 2 0 12 -3 20 -6 12 -5 15 -2 10 10 -4 11 -1 16 10 16 9 0 16
7 16 16 0 8 4 13 9 10 5 -3 7 -15 4 -26 -3 -11 -9 -17 -14 -14 -5 3 -9 1 -9
-4 0 -5 15 -9 33 -10 49 -2 98 -9 104 -16 4 -3 -1 -6 -10 -6 -25 0 -21 -18 6
-23 19 -4 18 -4 -5 -6 -16 0 -28 4 -29 12 0 10 -2 10 -6 0 -2 -7 -12 -13 -21
-12 -11 0 -12 2 -4 6 21 8 13 33 -10 33 -19 0 -20 -2 -8 -10 13 -8 12 -10 -3
-10 -10 0 -15 -4 -12 -10 8 -13 -5 -13 -25 0 -10 6 -11 10 -2 10 26 0 10 15
-18 17 -19 1 -33 -3 -36 -12 -3 -8 -12 -11 -21 -8 -13 5 -12 8 6 15 l23 8 -24
29 c-22 29 -47 43 -32 19 4 -7 3 -8 -4 -4 -22 13 -12 25 18 24 22 -1 29 -5 26
-15z m2188 5 c-7 -11 -42 -10 -49 2 -4 6 5 10 24 8 16 -1 27 -6 25 -10z m277
-6 c-7 -2 -18 1 -23 6 -8 8 -4 9 13 5 13 -4 18 -8 10 -11z m-3818 1 c-7 -2
-19 -2 -25 0 -7 3 -2 5 12 5 14 0 19 -2 13 -5z m1510 -1 c-6 -4 10 -8 35 -9
26 -1 49 3 53 9 4 6 21 6 50 0 l44 -10 -45 -2 c-38 -2 -41 -3 -20 -10 25 -8
25 -8 -5 -10 l-30 -2 28 -12 c15 -7 24 -15 21 -19 -4 -4 -13 -2 -20 4 -8 6
-20 9 -28 6 -8 -3 -22 1 -33 8 -10 8 -30 15 -45 15 -18 0 -28 5 -28 14 0 8
-10 17 -22 19 -13 2 -6 5 17 5 22 1 35 -2 28 -6z m214 -6 c0 -8 -6 -12 -15 -9
-11 5 -11 7 0 14 7 5 13 9 14 9 0 0 1 -6 1 -14z m1633 10 c0 -2 -7 -7 -16 -10
-8 -3 -12 -2 -9 4 6 10 25 14 25 6z m-3907 -13 c3 -5 -6 -9 -20 -10 -19 -1
-22 1 -12 8 17 11 26 11 32 2z m227 -3 c0 -5 -2 -10 -4 -10 -3 0 -8 5 -11 10
-3 6 -1 10 4 10 6 0 11 -4 11 -10z m801 -3 c-5 -5 -17 -5 -28 2 -16 9 -15 10
9 9 16 -2 24 -6 19 -11z m-1143 -9 c45 -1 49 -2 19 -5 -29 -3 -37 -8 -33 -19
7 -18 1 -18 -19 3 -14 14 -22 14 -49 5 -37 -14 -73 -15 -80 -4 -2 4 11 6 30 4
25 -3 35 0 40 12 4 10 13 15 21 12 8 -3 40 -7 71 -8z m1022 -4 c0 -2 -7 -4
-15 -4 -8 0 -15 4 -15 10 0 5 7 7 15 4 8 -4 15 -8 15 -10z m174 7 c4 -5 -3 -7
-14 -4 -23 6 -26 13 -6 13 8 0 17 -4 20 -9z m161 -1 c3 -5 -1 -10 -10 -10 -9
0 -13 5 -10 10 3 6 8 10 10 10 2 0 7 -4 10 -10z m782 4 c-3 -3 -12 -4 -19 -1
-8 3 -5 6 6 6 11 1 17 -2 13 -5z m-1832 -14 c-3 -5 -12 -10 -18 -10 -7 0 -6 4
3 10 19 12 23 12 15 0z m65 0 c0 -5 -2 -10 -4 -10 -3 0 -8 5 -11 10 -3 6 -1
10 4 10 6 0 11 -4 11 -10z m26 -19 c-4 -6 -13 -11 -19 -10 -9 0 -9 2 0 5 7 3
9 13 6 22 -5 13 -3 14 7 5 7 -6 9 -16 6 -22z m159 19 c3 -5 -1 -10 -10 -10 -9
0 -13 5 -10 10 3 6 8 10 10 10 2 0 7 -4 10 -10z m126 -8 c-7 -2 -18 1 -23 6
-8 8 -4 9 13 5 13 -4 18 -8 10 -11z m292 6 c-2 -5 -15 -8 -29 -8 -13 0 -24 3
-24 8 0 4 13 7 29 7 16 0 27 -3 24 -7z m607 2 c0 -5 -2 -10 -4 -10 -3 0 -8 5
-11 10 -3 6 -1 10 4 10 6 0 11 -4 11 -10z m795 -10 c3 -5 2 -10 -4 -10 -5 0
-13 5 -16 10 -3 6 -2 10 4 10 5 0 13 -4 16 -10z m870 0 c-3 -5 -12 -10 -18
-10 -7 0 -6 4 3 10 19 12 23 12 15 0z m45 -6 c0 -2 -7 -4 -15 -4 -8 0 -15 4
-15 10 0 5 7 7 15 4 8 -4 15 -8 15 -10z m-3744 -10 c-21 -8 -45 -19 -53 -26
-11 -9 -13 -8 -11 3 2 10 -5 13 -22 11 -22 -2 -23 -1 -7 9 10 6 27 9 38 6 10
-3 21 -2 23 1 2 4 19 8 38 9 l33 1 -39 -14z m222 9 c-10 -2 -28 -2 -40 0 -13
2 -5 4 17 4 22 1 32 -1 23 -4z m563 -2 c-11 -7 -10 -10 5 -14 11 -3 5 -5 -15
-6 -29 -1 -32 1 -21 14 7 8 20 15 29 15 13 0 13 -2 2 -9z m99 5 c0 -3 -4 -8
-10 -11 -5 -3 -10 -1 -10 4 0 6 5 11 10 11 6 0 10 -2 10 -4z m797 -2 c-3 -3
-12 -4 -19 -1 -8 3 -5 6 6 6 11 1 17 -2 13 -5z m1266 -20 c3 -20 -1 -21 -57
-22 -59 0 -60 1 -31 14 26 12 27 13 8 14 -13 0 -23 4 -23 9 0 5 22 8 49 8 42
-2 50 -5 54 -23z m173 11 c-3 -9 0 -15 10 -15 8 0 12 5 9 10 -10 17 22 11 36
-7 12 -14 12 -16 -1 -11 -8 3 -23 1 -32 -3 -12 -7 -21 -3 -31 11 -10 14 -20
18 -32 14 -13 -5 -16 -4 -11 4 11 18 59 15 52 -3z m401 9 c-3 -3 -12 -4 -19
-1 -8 3 -5 6 6 6 11 1 17 -2 13 -5z m-3152 -13 c-6 -5 -28 -12 -50 -15 l-40
-6 40 14 c50 17 62 19 50 7z m35 -1 c0 -5 -2 -10 -4 -10 -3 0 -8 5 -11 10 -3
6 -1 10 4 10 6 0 11 -4 11 -10z m150 0 c11 -8 7 -9 -15 -4 -37 8 -45 14 -19
14 10 0 26 -5 34 -10z m720 1 c0 -5 -9 -7 -20 -4 -11 3 -20 7 -20 9 0 2 9 4
20 4 11 0 20 -4 20 -9z m77 3 c-3 -3 -12 -4 -19 -1 -8 3 -5 6 6 6 11 1 17 -2
13 -5z m83 -3 c0 -4 -11 -6 -25 -3 -14 2 -25 6 -25 8 0 2 11 4 25 4 14 0 25
-4 25 -9z m65 -1 c3 -5 1 -10 -4 -10 -6 0 -11 5 -11 10 0 6 2 10 4 10 3 0 8
-4 11 -10z m1299 2 c3 -5 -1 -9 -9 -9 -8 0 -12 4 -9 9 3 4 7 8 9 8 2 0 6 -4 9
-8z m256 -4 c0 -5 -20 -8 -45 -7 -25 2 -45 6 -45 9 0 4 20 7 45 7 25 0 45 -4
45 -9z m510 2 c0 -5 -2 -10 -4 -10 -3 0 -8 5 -11 10 -3 6 -1 10 4 10 6 0 11
-4 11 -10z m76 -8 c-10 -2 -22 0 -28 6 -6 6 0 7 19 4 21 -5 23 -7 9 -10z m159
8 c3 -6 -1 -7 -9 -4 -18 7 -21 14 -7 14 6 0 13 -4 16 -10z m-3112 -7 c-7 -2
-19 -2 -25 0 -7 3 -2 5 12 5 14 0 19 -2 13 -5z m2137 -12 c-5 -11 -15 -23 -21
-27 -6 -3 -3 5 6 20 20 30 30 35 15 7z m425 9 c3 -5 -1 -10 -9 -10 -9 0 -16
-5 -16 -12 0 -6 -2 -9 -5 -6 -7 7 5 38 15 38 5 0 12 -4 15 -10z m35 0 c0 -5
-2 -10 -4 -10 -3 0 -8 5 -11 10 -3 6 -1 10 4 10 6 0 11 -4 11 -10z m1073 3
c-7 -2 -19 -2 -25 0 -7 3 -2 5 12 5 14 0 19 -2 13 -5z m460 0 c-7 -2 -19 -2
-25 0 -7 3 -2 5 12 5 14 0 19 -2 13 -5z m117 3 c0 -2 -7 -7 -16 -10 -8 -3 -12
-2 -9 4 6 10 25 14 25 6z m-4835 -17 c11 -16 1 -19 -13 -3 -7 8 -8 14 -3 14 5
0 13 -5 16 -11z m965 -4 c0 -2 -9 -3 -19 -2 -11 0 -18 5 -15 9 4 6 34 0 34 -7z
m625 6 c3 -5 1 -12 -4 -15 -5 -3 -11 1 -15 9 -6 16 9 21 19 6z m1406 -9 c-7
-2 -18 1 -23 6 -8 8 -4 9 13 5 13 -4 18 -8 10 -11z m-3181 4 c0 -3 -4 -8 -10
-11 -5 -3 -10 -1 -10 4 0 6 5 11 10 11 6 0 10 -2 10 -4z m67 -12 c-3 -3 -12
-4 -19 -1 -8 3 -5 6 6 6 11 1 17 -2 13 -5z m76 -14 c-3 -11 -9 -17 -14 -15
-10 7 -1 35 11 35 5 0 6 -9 3 -20z m627 10 c0 -5 -5 -10 -11 -10 -5 0 -7 5 -4
10 3 6 8 10 11 10 2 0 4 -4 4 -10z m1770 6 c0 -3 -4 -8 -10 -11 -5 -3 -10 -1
-10 4 0 6 5 11 10 11 6 0 10 -2 10 -4z m1321 -19 c-10 -9 -11 -8 -5 6 3 10 9
15 12 12 3 -3 0 -11 -7 -18z m429 19 c0 -2 -7 -7 -16 -10 -8 -3 -12 -2 -9 4 6
10 25 14 25 6z m853 -3 c-7 -2 -19 -2 -25 0 -7 3 -2 5 12 5 14 0 19 -2 13 -5z
m-6343 -13 c0 -5 -4 -10 -10 -10 -5 0 -10 5 -10 10 0 6 5 10 10 10 6 0 10 -4
10 -10z m170 0 c0 -5 -4 -10 -10 -10 -5 0 -10 5 -10 10 0 6 5 10 10 10 6 0 10
-4 10 -10z m1205 0 c3 -5 -1 -10 -10 -10 -9 0 -13 5 -10 10 3 6 8 10 10 10 2
0 7 -4 10 -10z m80 -1 c-4 -6 -9 -8 -12 -5 -3 2 -16 1 -29 -4 -14 -6 -24 -6
-24 0 0 9 22 17 53 19 11 1 15 -4 12 -10z m845 -1 c0 -4 -4 -8 -9 -8 -6 0 -12
4 -15 8 -3 5 1 9 9 9 8 0 15 -4 15 -9z m1537 6 c-3 -3 -12 -4 -19 -1 -8 3 -5
6 6 6 11 1 17 -2 13 -5z m103 2 c0 -7 -40 -14 -44 -7 -3 4 6 8 20 9 13 1 24 0
24 -2z m1017 -2 c-3 -3 -12 -4 -19 -1 -8 3 -5 6 6 6 11 1 17 -2 13 -5z m311
-5 c-7 -4 -25 -5 -40 -2 -17 3 -28 1 -28 -6 0 -6 -5 -11 -11 -11 -8 0 -8 4 1
14 7 9 27 14 50 13 22 -1 34 -4 28 -8z m172 -6 c0 -12 -3 -14 -8 -7 -4 7 -18
14 -32 17 -21 4 -20 4 8 6 24 1 32 -3 32 -16z m155 6 c4 -5 -3 -8 -14 -6 -28
4 -34 12 -11 14 11 1 22 -2 25 -8z m68 4 c-7 -2 -21 -2 -30 0 -10 3 -4 5 12 5
17 0 24 -2 18 -5z m77 3 c0 -2 -7 -7 -16 -10 -8 -3 -12 -2 -9 4 6 10 25 14 25
6z m-6660 -16 c0 -5 -4 -10 -10 -10 -5 0 -10 5 -10 10 0 6 5 10 10 10 6 0 10
-4 10 -10z m1043 3 c-7 -2 -21 -2 -30 0 -10 3 -4 5 12 5 17 0 24 -2 18 -5z
m841 -1 c3 -5 -1 -9 -9 -9 -8 0 -12 4 -9 9 3 4 7 8 9 8 2 0 6 -4 9 -8z m611
-2 c-3 -5 -10 -10 -16 -10 -5 0 -9 5 -9 10 0 6 7 10 16 10 8 0 12 -4 9 -10z
m240 -8 c-3 -3 -11 0 -18 7 -9 10 -8 11 6 5 10 -3 15 -9 12 -12z m45 5 c-27
-15 -36 -14 -25 2 3 6 16 11 28 11 21 0 21 -1 -3 -13z m580 9 c0 -2 -11 -6
-25 -8 -14 -3 -25 -1 -25 3 0 5 11 9 25 9 14 0 25 -2 25 -4z m-3217 -13 c-7
-2 -21 -2 -30 0 -10 3 -4 5 12 5 17 0 24 -2 18 -5z m1041 -13 c16 16 25 12 23
-9 0 -11 -6 -17 -12 -13 -5 3 -19 7 -30 7 -29 2 -56 16 -50 25 3 5 18 2 32 -5
18 -10 31 -11 37 -5z m643 14 c-3 -3 -12 -4 -19 -1 -8 3 -5 6 6 6 11 1 17 -2
13 -5z m1473 -4 c0 -5 -5 -10 -11 -10 -5 0 -7 5 -4 10 3 6 8 10 11 10 2 0 4
-4 4 -10z m2397 4 c-3 -3 -12 -4 -19 -1 -8 3 -5 6 6 6 11 1 17 -2 13 -5z m244
-6 c-4 -4 -34 -4 -66 1 l-60 9 67 -1 c37 -1 64 -5 59 -9z m-4851 -8 c8 -5 11
-10 5 -10 -5 0 -17 5 -25 10 -8 5 -10 10 -5 10 6 0 17 -5 25 -10z m498 5 c-3
-3 -43 -7 -89 -9 -51 -3 -76 -1 -64 4 22 9 162 13 153 5z m199 -1 c-3 -3 -12
-4 -19 -1 -8 3 -5 6 6 6 11 1 17 -2 13 -5z m1313 -15 c0 -5 -9 -9 -20 -9 -11
0 -20 4 -20 10 0 5 7 6 17 3 12 -5 14 -3 8 7 -5 9 -4 11 3 6 7 -4 12 -11 12
-17z m135 11 c-27 -12 -43 -12 -25 0 8 5 22 9 30 9 10 0 8 -3 -5 -9z m3022 4
c-3 -3 -12 -4 -19 -1 -8 3 -5 6 6 6 11 1 17 -2 13 -5z m-4267 -14 c8 -5 11
-10 5 -10 -5 0 -17 5 -25 10 -8 5 -10 10 -5 10 6 0 17 -5 25 -10z m896 3 c-10
-10 -46 -11 -40 -1 3 4 15 8 26 8 12 0 18 -3 14 -7z m41 1 c-3 -3 -12 -4 -19
-1 -8 3 -5 6 6 6 11 1 17 -2 13 -5z m-2637 -8 c0 -3 -4 -8 -10 -11 -5 -3 -10
-1 -10 4 0 6 5 11 10 11 6 0 10 -2 10 -4z m2027 -2 c-3 -3 -12 -4 -19 -1 -8 3
-5 6 6 6 11 1 17 -2 13 -5z m2268 -5 c-22 -4 -51 -8 -65 -7 -35 1 34 15 75 16
25 0 23 -2 -10 -9z m-3540 -9 c-3 -5 -12 -10 -18 -10 -7 0 -6 4 3 10 19 12 23
12 15 0z m75 0 c0 -5 -10 -10 -22 -9 -22 0 -22 1 -3 9 11 5 21 9 23 9 1 1 2
-3 2 -9z m963 3 c-7 -2 -21 -2 -30 0 -10 3 -4 5 12 5 17 0 24 -2 18 -5z m642
-3 c3 -5 1 -10 -4 -10 -6 0 -11 5 -11 10 0 6 2 10 4 10 3 0 8 -4 11 -10z m330
-8 c-3 -3 -11 0 -18 7 -9 10 -8 11 6 5 10 -3 15 -9 12 -12z m135 14 c0 -2 -7
-6 -15 -10 -8 -3 -15 -1 -15 4 0 6 7 10 15 10 8 0 15 -2 15 -4z m1294 -11 c-6
-16 -34 -21 -34 -7 0 13 11 22 26 22 8 0 11 -6 8 -15z m-3314 -5 c0 -5 -4 -10
-10 -10 -5 0 -10 5 -10 10 0 6 5 10 10 10 6 0 10 -4 10 -10z m163 -7 c-7 -2
-21 -2 -30 0 -10 3 -4 5 12 5 17 0 24 -2 18 -5z m-735 -10 c-10 -2 -26 -2 -35
0 -10 3 -2 5 17 5 19 0 27 -2 18 -5z m206 -2 c9 -14 -5 -42 -16 -35 -6 4 -5
10 3 15 12 8 11 11 -1 19 -9 6 -10 10 -3 10 6 0 14 -4 17 -9z m739 2 c-7 -2
-19 -2 -25 0 -7 3 -2 5 12 5 14 0 19 -2 13 -5z m277 3 c0 -2 -7 -7 -16 -10 -8
-3 -12 -2 -9 4 6 10 25 14 25 6z m-697 -13 c-7 -2 -19 -2 -25 0 -7 3 -2 5 12
5 14 0 19 -2 13 -5z m4912 -3 c3 -6 -1 -7 -9 -4 -18 7 -21 14 -7 14 6 0 13 -4
16 -10z m540 -8 c-3 -3 -11 0 -18 7 -9 10 -8 11 6 5 10 -3 15 -9 12 -12z m138
11 c-7 -2 -19 -2 -25 0 -7 3 -2 5 12 5 14 0 19 -2 13 -5z m172 -3 c3 -5 -1
-10 -9 -10 -9 0 -16 5 -16 10 0 6 4 10 9 10 6 0 13 -4 16 -10z m-5632 -7 c-7
-2 -21 -2 -30 0 -10 3 -4 5 12 5 17 0 24 -2 18 -5z m57 -3 c-20 -13 -33 -13
-25 0 3 6 14 10 23 10 15 0 15 -2 2 -10z m103 3 c-7 -2 -19 -2 -25 0 -7 3 -2
5 12 5 14 0 19 -2 13 -5z m147 -3 c0 -5 -10 -10 -22 -9 -22 0 -22 1 -3 9 11 5
21 9 23 9 1 1 2 -3 2 -9z m68 3 c-10 -2 -28 -2 -40 0 -13 2 -5 4 17 4 22 1 32
-1 23 -4z m925 0 c-7 -2 -19 -2 -25 0 -7 3 -2 5 12 5 14 0 19 -2 13 -5z m64 1
c-3 -3 -12 -4 -19 -1 -8 3 -5 6 6 6 11 1 17 -2 13 -5z m1211 -1 c-10 -2 -26
-2 -35 0 -10 3 -2 5 17 5 19 0 27 -2 18 -5z m847 -26 l30 -4 -33 -2 c-32 -1
-68 20 -55 33 3 3 11 -1 17 -9 6 -7 25 -16 41 -18z m1308 26 c-7 -2 -19 -2
-25 0 -7 3 -2 5 12 5 14 0 19 -2 13 -5z m-1990 -12 c23 -4 -8 -19 -38 -19 -19
0 -33 4 -30 8 3 5 -1 10 -7 13 -11 3 52 2 75 -2z m1400 -11 c4 0 5 5 2 10 -9
15 7 12 29 -5 19 -14 19 -15 -7 -16 -15 -1 -33 -2 -39 -3 -7 -1 -14 8 -16 19
-3 16 -1 18 9 8 7 -7 17 -13 22 -13z m417 10 c0 -5 -5 -10 -11 -10 -5 0 -7 5
-4 10 3 6 8 10 11 10 2 0 4 -4 4 -10z m-4555 -10 c-3 -5 -11 -10 -16 -10 -6 0
-7 5 -4 10 3 6 11 10 16 10 6 0 7 -4 4 -10z m95 -10 c-8 -5 -28 -9 -45 -9 -29
1 -29 1 -5 9 14 4 34 8 45 9 16 1 17 -1 5 -9z m83 3 c-7 -2 -21 -2 -30 0 -10
3 -4 5 12 5 17 0 24 -2 18 -5z m130 0 c-7 -2 -19 -2 -25 0 -7 3 -2 5 12 5 14
0 19 -2 13 -5z m2635 -8 c1 -1 -5 -5 -15 -7 -10 -3 -24 1 -32 9 -10 12 -8 13
16 7 15 -4 29 -8 31 -9z m-1805 -2 c-7 -2 -21 -2 -30 0 -10 3 -4 5 12 5 17 0
24 -2 18 -5z m1732 -4 c-4 -6 -13 -8 -20 -5 -8 3 -16 0 -19 -7 -3 -9 -7 -8
-14 2 -9 12 -13 12 -26 2 -10 -9 -25 -11 -43 -6 l-28 8 25 7 c40 13 132 12
125 -1z"/>
<path d="M7688 5229 c-1 -34 0 -63 5 -66 4 -2 7 25 7 61 0 36 -2 66 -4 66 -2
0 -6 -27 -8 -61z"/>
<path d="M6855 8480 c-3 -5 -1 -18 4 -27 6 -10 11 -13 11 -6 0 6 3 18 6 27 7
17 -11 22 -21 6z"/>
<path d="M6960 8486 c0 -2 7 -9 15 -16 13 -11 14 -10 9 4 -5 14 -24 23 -24 12z"/>
<path d="M6935 8460 c3 -5 14 -10 23 -10 15 0 15 2 2 10 -20 13 -33 13 -25 0z"/>
<path d="M6840 8414 c0 -8 -4 -12 -10 -9 -5 3 -10 -1 -10 -9 0 -21 10 -20 26
2 16 21 17 32 4 32 -5 0 -10 -7 -10 -16z"/>
<path d="M2937 8183 c-4 -3 -7 -579 -7 -1280 0 -1213 1 -1273 18 -1273 10 0
28 7 41 16 18 13 20 18 10 26 -10 6 -7 7 8 3 12 -3 32 -1 43 5 15 8 565 11
1958 12 1065 0 1970 3 2010 7 53 5 77 11 87 24 12 17 13 17 17 -1 3 -10 21
-23 44 -30 22 -6 61 -22 87 -35 l47 -24 -2 1276 -3 1276 -2176 3 c-1197 1
-2179 -1 -2182 -5z m3186 -60 c-226 -2 -600 -2 -830 0 -230 1 -44 2 412 2 457
0 645 -1 418 -2z m494 1 c-3 -3 -12 -4 -19 -1 -8 3 -5 6 6 6 11 1 17 -2 13 -5z
m86 -1 c-13 -2 -35 -2 -50 0 -16 2 -5 4 22 4 28 0 40 -2 28 -4z m-609 -144 c8
13 96 7 105 -7 8 -14 89 -32 109 -24 11 4 14 1 9 -11 -4 -11 -1 -17 9 -17 8 0
12 -4 9 -10 -3 -5 7 -12 22 -16 46 -10 50 -14 12 -11 -27 2 -35 -1 -32 -10 3
-7 16 -13 29 -13 25 0 33 -15 12 -23 -10 -4 -10 -7 0 -18 14 -15 16 -53 2 -44
-5 3 -10 -1 -10 -9 0 -28 19 -17 28 15 l8 32 12 -27 c10 -22 9 -26 -4 -26 -12
0 -15 -7 -12 -25 6 -31 -7 -42 -21 -18 -9 16 -10 16 -11 -4 0 -19 4 -21 36
-17 22 3 33 1 29 -6 -3 -5 -17 -10 -30 -10 -27 0 -43 -19 -25 -30 8 -5 7 -9
-5 -13 -9 -4 -15 -12 -14 -19 3 -21 -12 -48 -23 -42 -6 4 -5 10 3 15 11 7 10
9 -4 9 -14 0 -16 -6 -11 -27 4 -19 3 -24 -4 -15 -7 11 -11 8 -16 -12 -5 -19
-13 -26 -31 -26 -14 0 -25 5 -25 10 0 6 -15 -5 -32 -24 -18 -18 -41 -32 -50
-31 -10 2 -18 -1 -18 -6 0 -5 -4 -9 -10 -9 -5 0 -7 8 -3 18 5 15 4 14 -9 -2
-8 -10 -20 -16 -26 -12 -7 4 -12 0 -13 -11 0 -11 -3 -13 -6 -5 -2 6 -9 9 -14
6 -6 -3 -17 0 -25 7 -13 10 -17 10 -23 0 -6 -10 -10 -9 -14 4 -6 13 -11 14
-28 4 -15 -8 -19 -8 -15 0 4 6 2 11 -3 11 -6 0 -11 10 -11 23 0 12 -5 29 -11
37 -7 11 -8 5 -3 -22 4 -25 2 -38 -5 -38 -6 0 -11 10 -12 23 l0 22 -9 -22 c-5
-13 -12 -23 -15 -23 -4 0 -3 5 0 10 7 11 -19 42 -32 39 -15 -4 -43 13 -37 22
3 5 -1 10 -8 11 -7 0 -17 2 -23 3 -5 2 -16 3 -22 4 -7 0 -13 8 -13 16 0 8 -9
15 -19 15 -11 0 -21 5 -23 10 -2 6 -13 12 -25 13 -17 1 -19 4 -11 14 6 7 9 13
7 14 -2 0 -13 3 -24 5 -11 2 -28 5 -37 6 -20 2 -31 24 -21 41 4 6 0 8 -10 4
-13 -5 -17 -1 -17 18 0 26 -15 34 -23 13 -2 -7 -7 -10 -11 -7 -4 4 1 15 11 25
20 20 24 50 6 47 -6 -1 -10 9 -9 23 1 22 2 23 14 7 13 -18 16 -6 6 21 -3 9
-10 13 -15 10 -5 -3 -9 0 -9 5 0 6 9 11 20 11 11 0 20 5 20 10 0 6 6 9 13 8 6
-2 12 5 12 14 0 10 6 23 14 30 10 10 12 10 7 1 -11 -19 44 -17 58 2 12 17 52
22 79 10 10 -4 17 -3 17 5 0 6 -6 8 -12 4 -8 -4 -8 -2 1 7 10 10 15 11 18 2 2
-7 12 -9 20 -6 12 5 15 2 10 -10 -9 -24 6 -21 21 3 10 17 15 18 32 8 17 -11
22 -10 29 0 6 10 20 11 59 4 37 -6 58 -6 74 3 14 7 28 8 35 3 6 -5 14 -5 17 1z
m-419 -37 c-3 -3 -11 0 -18 7 -9 10 -8 11 6 5 10 -3 15 -9 12 -12z m-142 -93
c-9 -9 -12 -7 -10 9 1 14 5 18 11 12 7 -7 6 -14 -1 -21z m1658 -1754 l-10 -90
5 94 c2 52 5 468 6 925 l3 831 2 -835 c2 -478 -1 -873 -6 -925z m-4154 1603
c-2 -13 -4 -5 -4 17 -1 22 1 32 4 23 2 -10 2 -28 0 -40z m3391 27 c-3 -3 -9 2
-12 12 -6 14 -5 15 5 6 7 -7 10 -15 7 -18z m-2090 -72 c-16 -2 -40 -2 -55 0
-16 2 -3 4 27 4 30 0 43 -2 28 -4z m160 0 c-16 -2 -40 -2 -55 0 -16 2 -3 4 27
4 30 0 43 -2 28 -4z m1932 -3 c-19 -13 -30 -13 -30 0 0 6 10 10 23 10 18 0 19
-2 7 -10z m-3393 -42 c-3 -7 -5 -2 -5 12 0 14 2 19 5 13 2 -7 2 -19 0 -25z
m1517 -3 c14 -13 26 -29 26 -35 0 -5 7 -10 16 -10 8 0 13 -4 10 -9 -3 -4 1
-17 9 -27 13 -18 36 -19 477 -24 430 -5 463 -6 466 -22 2 -12 -3 -18 -15 -19
-16 -1 -17 -2 0 -6 14 -4 17 -16 17 -64 l0 -59 50 0 50 0 0 -83 c0 -46 -3
-125 -6 -175 l-7 -92 -35 0 c-26 0 -33 -3 -28 -15 6 -18 -29 -39 -50 -31 -12
4 -14 1 -9 -14 5 -17 2 -20 -20 -20 -18 0 -29 -6 -32 -20 -3 -11 -12 -20 -19
-20 -8 0 -14 -4 -14 -10 0 -5 -11 -10 -25 -10 -16 0 -25 -6 -25 -15 0 -10 -10
-15 -29 -15 -29 0 -56 -20 -29 -20 10 -1 -79 -40 -90 -40 -2 0 -1 19 2 43 2
23 5 104 5 180 l1 137 24 0 c29 0 36 -16 36 -79 0 -26 5 -52 12 -59 8 -8 8
-12 1 -12 -6 0 -13 -7 -17 -15 -4 -10 1 -15 15 -15 11 0 18 4 14 9 -3 5 2 16
11 25 18 19 22 148 5 154 -6 2 -11 22 -11 45 l0 42 23 -35 22 -35 3 73 c2 58
6 72 19 72 10 0 14 6 10 20 -5 18 0 20 56 21 l62 2 -56 6 c-31 3 -63 12 -71
18 -15 13 -348 20 -588 12 l-105 -3 130 -6 c108 -5 85 -6 -128 -8 -193 -1
-256 1 -251 10 4 7 3 8 -4 4 -16 -10 -15 -37 1 -35 6 1 136 1 288 0 l277 -1
-6 -45 c-5 -45 -4 -45 27 -45 l31 0 0 -60 c0 -57 1 -60 25 -60 24 0 25 3 26
58 0 41 3 51 9 36 4 -11 7 -65 5 -120 -5 -126 1 -157 26 -149 18 6 19 -3 19
-208 0 -261 5 -306 31 -300 16 5 19 15 19 75 0 49 3 69 12 66 19 -7 94 -145
84 -155 -2 -3 4 -13 15 -24 10 -10 19 -28 19 -39 0 -11 7 -20 15 -20 8 0 15
-4 15 -9 0 -12 47 -61 60 -61 6 0 17 -14 24 -31 8 -20 15 -26 18 -18 4 11 8
10 23 -4 9 -10 30 -21 46 -24 37 -7 45 -19 22 -31 -10 -5 -203 -10 -430 -11
-401 -1 -413 0 -413 18 0 11 6 22 13 24 6 3 -2 6 -20 6 -17 1 -38 4 -47 7 -12
5 -16 0 -16 -20 0 -16 -6 -26 -15 -26 -10 0 -16 16 -21 51 -5 41 -12 53 -31
62 -19 8 -26 8 -33 -2 -5 -9 -17 -11 -34 -7 -14 3 -26 4 -26 2 0 -2 -3 -13 -6
-23 -5 -15 -4 -15 5 -3 6 9 11 10 11 3 0 -6 3 -18 6 -27 5 -12 -1 -14 -32 -10
-20 2 -41 7 -46 11 -6 3 -7 -3 -3 -16 4 -12 2 -21 -4 -21 -6 0 -11 15 -12 33
0 27 -2 29 -9 12 -8 -19 -9 -18 -11 5 -6 57 -4 76 8 88 7 8 11 17 8 22 -2 4 9
10 26 14 29 5 30 8 28 48 -1 24 -5 49 -7 56 -5 15 -82 17 -82 1 0 -5 5 -7 10
-4 6 3 10 2 10 -4 0 -6 -11 -13 -25 -17 -14 -4 -24 -9 -21 -11 7 -7 -20 -33
-33 -33 -6 0 -11 -4 -11 -10 0 -5 5 -10 11 -10 6 0 -3 -12 -20 -26 -17 -14
-31 -34 -31 -45 0 -20 -15 -26 -25 -9 -3 6 -10 10 -16 10 -5 0 -9 -4 -9 -10 0
-5 7 -10 15 -10 8 0 15 -4 15 -10 0 -12 -33 -14 -44 -2 -4 4 -12 8 -17 8 -5 1
-13 2 -19 3 -5 0 -10 19 -10 41 0 33 3 40 20 40 11 0 19 3 19 8 -4 22 3 34 15
29 18 -7 40 18 31 33 -4 7 2 14 14 17 12 3 21 12 21 20 0 8 5 11 10 8 6 -3 10
3 10 14 0 11 9 22 19 26 12 3 24 23 32 50 9 29 18 44 28 42 20 -3 44 119 26
136 -6 7 -10 18 -7 25 4 14 5 13 -61 18 -53 3 -102 -10 -92 -26 4 -6 -5 -10
-19 -10 -14 0 -26 -6 -27 -12 -2 -55 -10 -77 -37 -105 -16 -18 -38 -33 -49
-34 -17 0 -16 -1 2 -8 17 -7 16 -8 -9 -13 -19 -4 -29 -1 -33 9 -5 12 -7 12
-14 1 -7 -10 -9 -10 -9 0 0 6 -7 12 -15 12 -8 0 -15 7 -15 15 0 9 -9 15 -24
15 -29 0 -36 15 -25 53 4 15 4 27 -2 27 -5 0 -9 -9 -9 -21 0 -11 -4 -18 -9
-14 -5 3 -17 -5 -25 -17 -9 -12 -16 -19 -16 -15 0 4 -11 -3 -24 -14 -14 -12
-22 -27 -20 -34 8 -20 -58 -26 -73 -6 -10 13 -12 10 -11 -21 1 -21 7 -39 15
-42 7 -3 13 -15 13 -26 0 -11 7 -20 15 -20 15 0 19 -11 15 -39 -1 -8 4 -18 12
-22 10 -7 10 -9 1 -9 -7 0 -13 -4 -13 -10 0 -5 7 -7 15 -4 8 4 15 12 15 20 0
9 11 14 30 14 19 0 30 -5 30 -14 0 -12 7 -13 32 -5 18 5 34 9 35 9 2 0 3 -16
3 -35 0 -32 -2 -35 -31 -35 -16 0 -28 4 -24 9 3 6 -6 7 -22 2 -16 -4 -34 -6
-42 -3 -8 3 -11 0 -7 -7 4 -6 2 -19 -3 -28 -7 -11 -11 -13 -11 -5 0 10 -4 9
-16 -2 -8 -9 -19 -14 -24 -11 -4 3 -7 -25 -6 -63 1 -37 0 -73 -2 -79 -8 -24
-22 -13 -22 17 0 19 -5 29 -12 27 -10 -1 -14 140 -16 675 l-2 678 27 6 c45 9
56 14 50 21 -4 3 -2 14 4 24 9 18 29 19 317 22 169 1 316 3 328 5 12 1 33 -9
48 -23z m1196 -35 c0 -5 -2 -10 -4 -10 -3 0 -8 5 -11 10 -3 6 -1 10 4 10 6 0
11 -4 11 -10z m-180 -44 c0 -2 3 -13 6 -23 6 -17 6 -17 -7 -1 -13 17 -50 18
-464 21 l-450 2 458 3 c251 1 457 0 457 -2z m-2533 -1133 c-1 -208 -2 -38 -2
377 0 415 1 585 2 378 2 -208 2 -548 0 -755z m720 1020 c-2 -21 -4 -6 -4 32 0
39 2 55 4 38 2 -18 2 -50 0 -70z m2781 -50 c-10 -2 -26 -2 -35 0 -10 3 -2 5
17 5 19 0 27 -2 18 -5z m-2781 -190 c-2 -37 -3 -9 -3 62 0 72 1 102 3 68 2
-34 2 -93 0 -130z m1360 170 c-10 -9 -77 -10 -77 -1 0 4 19 8 42 8 23 0 38 -3
35 -7z m76 0 c-7 -2 -19 -2 -25 0 -7 3 -2 5 12 5 14 0 19 -2 13 -5z m1373 -21
c6 -4 14 -17 18 -29 6 -17 15 -23 37 -23 28 0 30 -2 27 -32 -2 -26 -8 -34 -27
-36 -19 -3 -21 -6 -10 -13 11 -7 11 -9 -3 -9 -10 0 -18 -4 -18 -10 0 -5 -7
-10 -16 -10 -9 0 -18 -9 -21 -20 -3 -12 -13 -20 -22 -19 -9 1 -29 -3 -45 -10
-25 -10 -28 -15 -24 -50 l3 -39 -57 -6 c-50 -6 -59 -10 -64 -31 -3 -13 -11
-22 -18 -19 -7 3 -19 -3 -27 -12 -9 -12 -10 -15 -1 -10 6 4 12 2 12 -3 0 -6
-16 -11 -37 -11 -44 0 -38 -11 7 -12 25 -1 28 -3 15 -10 -9 -6 -27 -7 -41 -4
-17 5 -24 2 -24 -8 0 -16 -27 -29 -41 -20 -5 3 -9 0 -9 -5 0 -6 10 -12 23 -12
l22 -2 -22 -4 c-15 -3 -23 -12 -24 -26 0 -21 -1 -21 -9 -2 -7 17 -9 17 -9 3
-1 -27 -33 -39 -62 -24 -21 11 -27 10 -38 -2 -11 -11 -11 -16 -2 -22 9 -5 6
-9 -8 -13 -12 -3 -20 -11 -19 -19 2 -8 -6 -13 -22 -13 -21 0 -26 -6 -28 -33
-2 -17 -8 -32 -14 -32 -6 0 -8 13 -6 30 4 24 1 30 -9 25 -8 -3 -19 -5 -24 -5
-5 0 -9 -4 -9 -10 0 -5 7 -10 15 -10 23 0 21 -70 -2 -71 -17 -1 -17 -2 0 -6 9
-2 17 -11 17 -19 0 -8 9 -14 19 -14 23 0 27 -16 23 -81 -3 -40 -7 -49 -23 -49
-10 0 -19 -7 -19 -15 0 -10 -7 -15 -17 -13 -10 2 -17 -3 -16 -9 2 -7 -1 -13
-6 -13 -5 0 -12 6 -14 13 -3 7 -6 4 -6 -6 -1 -10 -5 -16 -10 -13 -5 3 -24 3
-42 -1 -28 -5 -30 -7 -14 -14 17 -6 15 -8 -9 -8 -23 -1 -27 2 -23 18 3 11 -1
22 -8 25 -8 3 -11 -2 -8 -15 3 -10 0 -19 -6 -19 -6 0 -11 5 -11 10 0 6 -5 10
-11 10 -5 0 -7 -5 -4 -11 9 -13 13 -69 6 -70 -3 -1 -32 -3 -65 -3 -43 -2 -62
-7 -71 -20 -19 -26 -87 -18 -100 12 -7 15 -18 22 -37 22 -21 0 -28 5 -28 20 0
10 -11 30 -25 44 -14 14 -25 31 -25 38 0 19 -34 83 -54 103 -10 11 -14 25 -10
41 5 19 1 26 -19 33 -19 7 -24 15 -20 30 4 17 1 21 -21 21 -17 0 -26 5 -26 16
0 8 5 12 10 9 14 -8 42 14 34 27 -3 5 3 12 15 15 12 3 21 12 21 19 0 8 11 14
26 14 17 0 28 6 31 20 4 14 14 20 34 20 16 0 29 4 29 10 0 10 52 47 116 84 19
11 34 25 34 31 0 7 12 10 33 8 44 -5 121 -25 127 -33 11 -14 70 -38 75 -30 3
5 1 11 -5 15 -15 9 -12 25 4 25 8 0 23 14 33 30 17 30 33 39 33 19 0 -5 12 3
28 19 15 16 41 33 57 37 l30 9 -35 6 -35 7 43 2 c28 1 65 13 108 36 35 19 70
35 77 35 7 0 20 9 29 19 9 10 24 23 34 29 16 9 16 12 4 29 -12 15 -12 16 0 6
16 -15 50 -17 50 -4 0 5 13 11 28 14 16 3 40 17 53 31 13 14 29 26 34 26 6 0
16 9 23 20 7 12 23 25 35 30 27 11 88 12 103 2z m-1478 -9 c-10 -2 -26 -2 -35
0 -10 3 -2 5 17 5 19 0 27 -2 18 -5z m604 -28 c2 -19 0 -35 -4 -35 -4 0 -8 16
-8 35 0 19 2 35 4 35 2 0 6 -16 8 -35z m655 -11 c-3 -3 -12 -4 -19 -1 -8 3 -5
6 6 6 11 1 17 -2 13 -5z m-610 -81 c-2 -16 -4 -5 -4 22 0 28 2 40 4 28 2 -13
2 -35 0 -50z m534 34 c-10 -9 -11 -8 -5 6 3 10 9 15 12 12 3 -3 0 -11 -7 -18z
m436 -59 c-2 -18 -4 -6 -4 27 0 33 2 48 4 33 2 -15 2 -42 0 -60z m-1327 28 c0
-3 -4 -8 -10 -11 -5 -3 -10 -1 -10 4 0 6 5 11 10 11 6 0 10 -2 10 -4z m780
-21 c0 -2 -7 -8 -15 -15 -12 -10 -15 -10 -15 2 0 8 7 15 15 15 8 0 15 -1 15
-2z m-423 -97 c-2 -18 -4 -6 -4 27 0 33 2 48 4 33 2 -15 2 -42 0 -60z m428 63
c-3 -6 -13 -11 -21 -11 -8 0 -12 -4 -9 -10 10 -16 -11 -12 -25 5 -11 13 -8 15
19 15 17 0 31 5 31 12 0 6 3 9 6 5 3 -3 3 -10 -1 -16z m-92 -6 c-3 -9 -8 -14
-10 -11 -3 3 -2 9 2 15 9 16 15 13 8 -4z m-2316 -267 c-1 -40 -3 -10 -3 67 0
77 1 110 3 73 2 -37 2 -100 0 -140z m3515 50 c0 -68 -3 -122 -6 -120 -3 1 -10
2 -14 2 -4 0 -8 9 -9 20 -1 11 1 20 5 20 4 0 8 9 8 20 0 11 -4 20 -8 20 -4 0
-8 14 -8 31 0 17 4 28 10 24 6 -3 10 1 10 9 0 9 -7 16 -15 16 -8 0 -15 2 -15
5 0 13 33 85 37 81 3 -2 5 -60 5 -128z m-1530 60 c2 -21 0 -38 -4 -38 -4 0 -8
21 -7 48 1 52 6 48 11 -10z m139 29 c-10 -9 -11 -8 -5 6 3 10 9 15 12 12 3 -3
0 -11 -7 -18z m566 -189 c-3 -7 -5 -2 -5 12 0 14 2 19 5 13 2 -7 2 -19 0 -25z
m160 -15 c-3 -10 -5 -2 -5 17 0 19 2 27 5 18 2 -10 2 -26 0 -35z m-377 5 c0
-18 -4 -40 -9 -47 -7 -10 -9 0 -8 32 2 53 17 65 17 15z m280 -9 c0 -16 -4 -28
-9 -25 -8 5 -3 56 5 56 2 0 4 -14 4 -31z m-177 -6 c-7 -2 -21 -2 -30 0 -10 3
-4 5 12 5 17 0 24 -2 18 -5z m-226 -19 c-3 -3 -12 -4 -19 -1 -8 3 -5 6 6 6 11
1 17 -2 13 -5z m1162 -31 c-2 -31 -3 -33 -6 -10 -2 15 -9 25 -14 22 -10 -7
-12 8 -2 18 15 16 23 5 22 -30z m-992 -10 c-3 -10 -5 -4 -5 12 0 17 2 24 5 18
2 -7 2 -21 0 -30z m220 5 c-3 -8 -6 -5 -6 6 -1 11 2 17 5 13 3 -3 4 -12 1 -19z
m-2740 -80 c-2 -13 -4 -3 -4 22 0 25 2 35 4 23 2 -13 2 -33 0 -45z m2850 36
c-3 -3 -12 -4 -19 -1 -8 3 -5 6 6 6 11 1 17 -2 13 -5z m663 -26 c0 -18 -5 -28
-15 -28 -10 0 -15 10 -15 28 0 19 5 29 15 29 10 0 15 -10 15 -29z m-1092 5
c-10 -2 -26 -2 -35 0 -10 3 -2 5 17 5 19 0 27 -2 18 -5z m349 -15 c-3 -8 -6
-5 -6 6 -1 11 2 17 5 13 3 -3 4 -12 1 -19z m60 -60 c-2 -13 -4 -5 -4 17 -1 22
1 32 4 23 2 -10 2 -28 0 -40z m-520 20 c-3 -8 -6 -5 -6 6 -1 11 2 17 5 13 3
-3 4 -12 1 -19z m-2310 -50 c-2 -13 -4 -5 -4 17 -1 22 1 32 4 23 2 -10 2 -28
0 -40z m3510 -43 c-3 -19 -2 -37 2 -40 4 -2 8 -34 9 -70 0 -36 -3 -63 -6 -61
-12 7 -9 -58 2 -66 7 -5 6 -8 -3 -8 -11 0 -11 -3 -1 -15 10 -12 10 -15 0 -15
-9 0 -10 -3 -1 -13 11 -14 6 -132 -9 -172 -4 -11 -3 -31 1 -45 9 -33 9 -166
-1 -205 -4 -16 -8 -24 -9 -17 0 6 -8 12 -16 12 -8 0 -15 5 -15 11 0 5 5 7 10
4 15 -9 12 0 -8 23 -19 21 -19 21 -19 -43 1 -44 4 -62 11 -55 5 5 20 10 33 10
21 0 23 -4 20 -37 -2 -21 -10 -39 -18 -41 -11 -3 -10 -1 1 7 13 9 12 12 -7 17
-13 4 -23 10 -23 15 0 5 -7 9 -16 9 -9 0 -13 -5 -9 -12 4 -7 -2 -2 -13 11 -17
21 -18 27 -6 39 9 9 12 22 7 40 -12 42 -8 94 9 106 16 12 17 21 18 206 1 81 4
116 10 100 6 -18 8 -5 9 48 1 51 -3 72 -11 72 -10 0 -10 2 -1 8 7 4 13 35 14
69 1 34 6 68 10 74 4 7 3 21 -2 31 -12 22 -4 38 17 38 12 0 15 -8 11 -35z
m-1200 -22 c-3 -10 -5 -2 -5 17 0 19 2 27 5 18 2 -10 2 -26 0 -35z m-77 -153
c-8 -5 -22 -9 -30 -9 -10 0 -8 3 5 9 27 12 43 12 25 0z m-23 -52 c-3 -7 -5 -2
-5 12 0 14 2 19 5 13 2 -7 2 -19 0 -25z m-70 -70 c-2 -13 -4 -5 -4 17 -1 22 1
32 4 23 2 -10 2 -28 0 -40z m-2017 -38 c-13 -9 -13 -10 1 -10 8 0 24 -7 35
-15 18 -14 16 -15 -28 -13 -26 1 -46 4 -44 7 2 3 6 14 9 24 4 9 14 17 24 17
15 0 16 -2 3 -10z m-794 -397 c-5 -6 -34 117 -40 172 -3 28 5 1 19 -59 13 -61
23 -111 21 -113z m4074 67 c-7 -28 -14 -49 -16 -47 -3 2 1 27 8 55 6 29 13 50
16 47 2 -2 -1 -27 -8 -55z"/>
<path d="M5700 7940 c0 -5 7 -10 15 -10 8 0 15 5 15 10 0 6 -7 10 -15 10 -8 0
-15 -4 -15 -10z"/>
<path d="M5641 7904 c0 -11 3 -14 6 -6 3 7 2 16 -1 19 -3 4 -6 -2 -5 -13z"/>
<path d="M5595 7789 c-4 -6 -5 -12 -2 -15 2 -3 7 2 10 11 7 17 1 20 -8 4z"/>
<path d="M3953 7563 c9 -2 25 -2 35 0 9 3 1 5 -18 5 -19 0 -27 -2 -17 -5z"/>
<path d="M4096 7375 c-4 -11 -20 -15 -56 -15 -32 0 -49 -4 -45 -10 4 -6 -8
-10 -28 -10 -19 0 -48 -3 -65 -6 -24 -5 -31 -2 -34 12 -3 17 -5 16 -10 -3 -6
-23 -5 -23 88 -23 77 0 92 -2 88 -14 -3 -8 -18 -19 -32 -25 -26 -9 -26 -9 -4
-10 13 -1 21 -5 18 -9 -11 -18 25 -52 55 -52 l29 0 0 -245 c0 -208 2 -245 15
-245 28 0 35 39 35 186 0 106 5 168 18 221 27 114 41 96 44 -59 3 -127 4 -133
24 -136 20 -3 22 2 28 105 4 59 7 140 8 178 0 39 3 64 5 58 3 -7 9 -13 15 -13
6 0 7 7 4 16 -5 14 2 15 59 9 45 -5 65 -4 65 4 0 6 8 11 17 11 15 0 14 2 -2
14 -11 8 -23 12 -27 10 -5 -3 -8 0 -8 5 0 6 5 11 11 11 6 0 9 5 7 11 -2 6 -7
9 -11 7 -5 -2 -13 5 -18 15 -9 15 -27 17 -148 17 -114 0 -140 -3 -145 -15z"/>
<path d="M4500 7358 c0 -11 28 -10 35 1 3 6 -4 9 -15 8 -11 -1 -20 -5 -20 -9z"/>
<path d="M3898 7353 c7 -3 16 -2 19 1 4 3 -2 6 -13 5 -11 0 -14 -3 -6 -6z"/>
<path d="M5438 7353 c7 -3 16 -2 19 1 4 3 -2 6 -13 5 -11 0 -14 -3 -6 -6z"/>
<path d="M3793 7290 c-1 -13 4 -20 17 -20 13 0 18 7 17 20 -1 11 -8 20 -17 20
-9 0 -16 -9 -17 -20z"/>
<path d="M4638 7183 c-27 -2 -48 -8 -48 -14 0 -5 -11 -9 -25 -9 -18 0 -28 -7
-35 -25 -6 -16 -17 -25 -31 -25 -12 0 -33 -12 -46 -27 -21 -25 -23 -35 -19
-88 2 -33 8 -80 13 -105 l8 -45 73 -3 c68 -3 73 -1 81 20 5 13 8 35 7 50 -1
15 2 25 6 22 4 -3 8 -14 8 -25 0 -11 5 -17 10 -14 6 3 10 35 10 70 0 51 3 63
14 59 8 -3 17 -1 21 5 3 6 33 11 66 11 l59 0 0 -76 c0 -47 4 -73 10 -69 15 9
12 -4 -4 -21 -8 -8 -33 -15 -55 -16 -38 -1 -41 -4 -47 -35 -3 -18 -10 -33 -15
-33 -5 0 -9 -11 -9 -25 0 -19 -5 -25 -20 -25 -19 0 -21 -5 -17 -70 4 -98 15
-108 108 -106 l74 1 3 53 c2 28 7 52 12 52 4 0 13 14 19 30 5 17 16 29 23 28
7 -2 12 4 10 14 -2 11 5 18 20 20 13 2 22 9 21 15 -2 7 4 10 12 7 8 -4 15 -10
15 -15 0 -23 28 -6 33 20 4 17 14 30 26 34 20 5 21 13 21 120 l0 115 -30 10
c-21 8 -28 16 -24 26 4 11 0 16 -12 16 -9 0 -15 3 -11 6 9 10 -26 44 -46 44
-12 0 -17 5 -14 13 4 10 -21 13 -112 13 -64 1 -137 -1 -163 -3z m49 -580 c-2
-16 -4 -3 -4 27 0 30 2 43 4 28 2 -16 2 -40 0 -55z"/>
<path d="M5375 7090 c-4 -6 -3 -16 3 -22 13 -13 23 4 13 21 -7 10 -10 10 -16
1z"/>
<path d="M5621 7014 c0 -11 3 -14 6 -6 3 7 2 16 -1 19 -3 4 -6 -2 -5 -13z"/>
<path d="M3844 6787 c15 -11 19 -28 19 -83 1 -38 3 -57 5 -41 2 15 8 25 13 22
5 -4 9 -1 9 4 0 6 -4 11 -10 11 -5 0 -10 5 -10 11 0 5 5 7 10 4 6 -3 10 -2 10
4 0 5 -4 12 -9 15 -4 3 -11 19 -14 36 -4 19 -13 30 -24 30 -15 0 -15 -1 1 -13z"/>
<path d="M3830 6760 c0 -19 3 -21 12 -12 9 9 9 15 0 24 -9 9 -12 7 -12 -12z"/>
<path d="M4032 6760 c0 -14 2 -19 5 -12 2 6 2 18 0 25 -3 6 -5 1 -5 -13z"/>
<path d="M3891 6654 c0 -11 3 -14 6 -6 3 7 2 16 -1 19 -3 4 -6 -2 -5 -13z"/>
<path d="M4531 6508 c-1 -35 1 -37 22 -29 12 5 23 17 25 27 3 18 2 18 -8 2
-16 -26 -28 -22 -33 10 -3 22 -4 20 -6 -10z"/>
<path d="M4488 6513 c6 -2 18 -2 25 0 6 3 1 5 -13 5 -14 0 -19 -2 -12 -5z"/>
<path d="M4666 6476 c6 -14 -5 -21 -28 -17 -5 0 -8 -30 -8 -69 0 -61 3 -71 22
-81 22 -12 155 -8 176 5 8 4 12 36 12 82 0 65 -2 74 -18 74 -10 0 -22 3 -26 8
-11 10 -106 9 -106 -2 0 -4 -7 -3 -15 4 -13 11 -14 10 -9 -4z"/>
<path d="M6473 7237 c-61 -50 -131 -89 -144 -81 -5 3 -9 -2 -9 -10 0 -9 -6
-16 -13 -16 -7 0 -28 -13 -47 -29 -19 -15 -45 -31 -57 -35 -13 -4 -23 -11 -23
-15 0 -5 -14 -14 -30 -21 -17 -7 -34 -18 -38 -24 -4 -6 -29 -22 -55 -36 -27
-14 -60 -35 -73 -47 -13 -12 -30 -20 -37 -17 -7 2 -28 -11 -46 -30 -19 -20
-39 -32 -44 -29 -6 4 -2 10 9 14 18 7 18 8 -2 8 -18 1 -23 -6 -26 -33 -2 -19
-1 -34 2 -34 22 2 39 -6 68 -33 18 -17 36 -28 40 -24 4 3 -1 11 -11 16 -9 6
-17 14 -17 18 0 15 63 81 77 81 8 0 11 4 8 10 -3 6 1 7 9 4 11 -4 16 0 16 15
0 16 6 21 25 21 17 0 25 6 25 18 0 14 2 15 10 2 9 -13 11 -13 20 0 26 42 37
50 62 50 15 0 28 5 28 10 0 6 6 10 13 10 13 1 67 45 67 55 0 15 28 33 40 25
10 -6 10 -9 -1 -12 -8 -3 -11 -9 -7 -12 9 -10 50 32 43 44 -4 6 7 10 22 10 16
0 38 7 49 15 10 8 26 15 35 15 9 0 27 11 40 25 14 14 35 25 50 25 22 0 26 4
24 24 -2 14 -6 30 -10 35 -11 19 -62 12 -92 -12z m40 -19 c4 -10 7 -10 18 0
18 16 29 15 29 -3 0 -19 -39 -19 -64 0 -16 12 -17 15 -4 15 9 0 18 -6 21 -12z
m-262 -151 c-6 -8 -7 -18 -3 -22 4 -5 1 -5 -6 -1 -10 6 -10 11 -1 22 6 8 14
14 16 14 3 0 0 -6 -6 -13z m-41 -27 c0 -5 -5 -10 -11 -10 -5 0 -7 5 -4 10 3 6
8 10 11 10 2 0 4 -4 4 -10z m-260 -186 c0 -14 -31 -34 -52 -33 l-23 2 23 4
c13 3 26 11 29 19 5 13 23 20 23 8z"/>
<path d="M6525 7150 c3 -5 8 -10 11 -10 2 0 4 5 4 10 0 6 -5 10 -11 10 -5 0
-7 -4 -4 -10z"/>
<path d="M5631 6860 c-13 -11 -35 -20 -50 -21 -23 0 -24 -1 -6 -9 11 -5 35 -9
53 -9 24 -1 32 3 32 17 0 13 -2 14 -9 4 -5 -8 -17 -12 -27 -10 -14 2 -7 9 26
26 27 13 37 22 25 22 -11 -1 -31 -10 -44 -20z"/>
<path d="M5490 6790 c-14 -11 -30 -20 -37 -20 -7 0 -17 -9 -22 -19 -9 -16 -8
-18 8 -14 16 4 19 1 14 -16 -3 -11 -9 -18 -14 -15 -5 3 -9 0 -9 -5 0 -15 27
-14 36 1 5 8 10 6 15 -8 6 -16 8 -15 8 9 1 16 7 27 15 27 8 0 21 9 29 20 8 11
16 17 20 14 3 -3 16 3 28 15 12 11 20 23 18 26 -3 3 -14 -3 -25 -13 -28 -25
-52 -26 -56 -3 -3 20 -3 20 -28 1z m0 -44 c0 -3 -4 -8 -10 -11 -5 -3 -10 -1
-10 4 0 6 5 11 10 11 6 0 10 -2 10 -4z"/>
<path d="M5375 6720 c-3 -5 1 -10 9 -10 8 0 18 5 21 10 3 6 -1 10 -9 10 -8 0
-18 -4 -21 -10z"/>
<path d="M5530 6688 c0 -4 7 -8 15 -8 8 0 15 4 15 8 0 5 -7 9 -15 9 -8 0 -15
-4 -15 -9z"/>
<path d="M5421 6673 c-19 -4 -22 -10 -19 -34 3 -15 0 -31 -6 -33 -6 -2 -4 -5
4 -5 26 -1 41 15 45 47 2 18 3 31 2 31 -1 -1 -13 -4 -26 -6z"/>
<path d="M5550 6610 c0 -5 -10 -12 -23 -15 -13 -4 -31 -21 -41 -40 -17 -32
-17 -35 -1 -72 31 -69 123 -115 166 -82 l24 18 -25 -5 c-25 -5 -25 -5 2 11 31
17 48 44 48 73 0 27 -29 84 -54 104 -22 19 -96 25 -96 8z"/>
<path d="M5910 6536 c0 -13 -3 -33 -7 -43 -6 -16 -5 -17 12 -3 17 13 18 13 13
-1 -5 -12 -1 -16 16 -16 19 0 21 4 18 33 -2 19 -8 34 -14 34 -5 0 -6 -10 -3
-22 7 -23 7 -23 -10 1 -15 19 -15 25 -4 32 11 7 10 9 -3 9 -12 0 -18 -8 -18
-24z"/>
<path d="M5858 6533 c-26 -7 -22 -21 6 -19 14 0 22 6 19 14 -3 6 -6 11 -7 11
0 -1 -9 -3 -18 -6z"/>
<path d="M5845 6490 c3 -5 1 -10 -4 -10 -6 0 -11 -5 -11 -11 0 -5 5 -7 10 -4
6 3 10 2 10 -3 0 -16 -13 -22 -25 -12 -9 7 -14 7 -18 -3 -3 -9 5 -14 24 -15
23 -2 29 2 29 17 0 11 3 26 6 35 4 11 1 16 -11 16 -9 0 -13 -4 -10 -10z"/>
<path d="M5660 6350 c0 -13 11 -13 30 0 12 8 11 10 -7 10 -13 0 -23 -4 -23
-10z"/>
<path d="M7221 6174 c0 -11 3 -14 6 -6 3 7 2 16 -1 19 -3 4 -6 -2 -5 -13z"/>
<path d="M2600 6084 c0 -3 6 -12 14 -20 13 -12 15 -12 13 6 -1 17 -27 31 -27
14z"/>
<path d="M2707 5973 c-4 -3 -7 -22 -7 -42 l1 -36 14 40 c8 22 15 41 15 43 0 5
-17 2 -23 -5z"/>
<path d="M2658 5946 c-4 -17 -1 -23 9 -19 14 6 18 43 4 43 -5 0 -11 -11 -13
-24z"/>
<path d="M2768 5643 c7 -3 16 -2 19 1 4 3 -2 6 -13 5 -11 0 -14 -3 -6 -6z"/>
<path d="M2836 5543 c-11 -11 -6 -23 9 -23 8 0 15 4 15 9 0 13 -16 22 -24 14z"/>
<path d="M3743 5523 c197 -2 517 -2 710 0 194 1 33 2 -358 2 -390 0 -549 -1
-352 -2z"/>
<path d="M3471 5434 c0 -11 3 -14 6 -6 3 7 2 16 -1 19 -3 4 -6 -2 -5 -13z"/>
<path d="M6507 5423 c-2 -5 -3 -48 -3 -98 l1 -90 120 0 120 0 3 98 3 97 -120
0 c-66 0 -122 -3 -124 -7z m211 -80 l-3 -68 -85 0 -85 0 -3 68 -3 67 91 0 91
0 -3 -67z m-191 -55 c-3 -8 -6 -5 -6 6 -1 11 2 17 5 13 3 -3 4 -12 1 -19z"/>
<path d="M6900 5330 l0 -101 133 3 132 3 0 95 -1 95 -132 3 -132 3 0 -101z"/>
<path d="M2908 5340 c-7 -24 -3 -38 8 -28 3 4 4 17 2 30 l-3 23 -7 -25z"/>
<path d="M7183 5305 c0 -27 2 -38 4 -22 2 15 2 37 0 50 -2 12 -4 0 -4 -28z"/>
<path d="M6090 5310 c0 -19 7 -20 148 -20 82 0 151 3 155 6 3 3 3 12 0 20 -4
11 -36 14 -154 14 -142 0 -149 -1 -149 -20z"/>
<path d="M2820 5261 c0 -5 5 -13 10 -16 6 -3 10 -2 10 4 0 5 -4 13 -10 16 -5
3 -10 2 -10 -4z"/>
<path d="M4728 5223 c7 -3 16 -2 19 1 4 3 -2 6 -13 5 -11 0 -14 -3 -6 -6z"/>
<path d="M4438 5163 c7 -3 16 -2 19 1 4 3 -2 6 -13 5 -11 0 -14 -3 -6 -6z"/>
<path d="M2644 5379 c-3 -6 -3 -13 0 -16 3 -4 6 -1 6 7 0 10 3 10 15 0 9 -7
15 -8 15 -2 0 14 -28 23 -36 11z"/>
<path d="M2600 5285 c0 -15 40 -38 49 -29 5 5 -35 44 -44 44 -3 0 -5 -7 -5
-15z"/>
<path d="M2671 5238 c-1 -16 4 -28 9 -28 12 0 12 8 0 35 -8 18 -9 17 -9 -7z"/>
<path d="M2625 5230 c-3 -5 -1 -10 4 -10 6 0 11 5 11 10 0 6 -2 10 -4 10 -3 0
-8 -4 -11 -10z"/>
<path d="M3250 5500 c0 -5 4 -10 9 -10 6 0 13 5 16 10 3 6 -1 10 -9 10 -9 0
-16 -4 -16 -10z"/>
<path d="M3090 5480 c0 -5 5 -10 11 -10 5 0 7 5 4 10 -3 6 -8 10 -11 10 -2 0
-4 -4 -4 -10z"/>
<path d="M3004 5381 c21 -23 26 -26 26 -11 0 5 -10 15 -22 21 -23 12 -23 12
-4 -10z"/>
<path d="M3255 5330 c-3 -5 3 -10 14 -10 12 0 21 5 21 10 0 6 -6 10 -14 10 -8
0 -18 -4 -21 -10z"/>
<path d="M3900 4992 c0 -4 18 -6 40 -4 22 2 40 6 40 8 0 2 -18 4 -40 4 -22 0
-40 -3 -40 -8z"/>
<path d="M3998 4993 c7 -3 16 -2 19 1 4 3 -2 6 -13 5 -11 0 -14 -3 -6 -6z"/>
<path d="M6893 4993 c9 -2 23 -2 30 0 6 3 -1 5 -18 5 -16 0 -22 -2 -12 -5z"/>
<path d="M6940 4996 c0 -2 11 -6 25 -8 14 -3 25 -1 25 3 0 5 -11 9 -25 9 -14
0 -25 -2 -25 -4z"/>
<path d="M7002 4975 c0 -16 2 -22 5 -12 2 9 2 23 0 30 -3 6 -5 -1 -5 -18z"/>
<path d="M7001 4924 c0 -11 3 -14 6 -6 3 7 2 16 -1 19 -3 4 -6 -2 -5 -13z"/>
<path d="M3898 4893 c23 -2 59 -2 80 0 20 2 1 4 -43 4 -44 0 -61 -2 -37 -4z"/>
<path d="M6908 4893 c18 -2 45 -2 60 0 15 2 0 4 -33 4 -33 0 -45 -2 -27 -4z"/>
<path d="M1037 4843 c-13 -12 -7 -25 6 -14 8 6 18 7 22 3 5 -4 5 -1 1 6 -8 13
-19 16 -29 5z"/>
<path d="M2797 4804 c-9 -9 1 -24 16 -24 8 0 7 4 -2 9 -9 6 49 10 154 10 93 1
171 4 174 6 2 3 -72 5 -166 5 -93 0 -173 -3 -176 -6z"/>
<path d="M3163 4803 c9 -2 23 -2 30 0 6 3 -1 5 -18 5 -16 0 -22 -2 -12 -5z"/>
<path d="M2805 4760 c3 -5 8 -10 11 -10 2 0 4 5 4 10 0 6 -5 10 -11 10 -5 0
-7 -4 -4 -10z"/>
<path d="M2932 4744 c-7 -8 -10 -19 -6 -26 5 -7 10 -3 16 12 10 28 7 33 -10
14z"/>
<path d="M2805 4730 c10 -11 13 -20 7 -20 -11 0 2 -41 30 -97 6 -12 8 -29 5
-37 -4 -9 -2 -16 3 -16 16 0 11 52 -10 98 -10 23 -15 42 -10 42 20 0 9 26 -16
37 -26 12 -26 12 -9 -7z"/>
<path d="M3713 4693 c9 -2 23 -2 30 0 6 3 -1 5 -18 5 -16 0 -22 -2 -12 -5z"/>
<path d="M3787 4694 c-3 -3 -3 -13 0 -22 5 -12 2 -14 -12 -8 -16 6 -34 -7 -35
-24 0 -12 70 3 81 16 10 12 8 13 -7 8 -16 -5 -15 -2 5 15 l23 21 -24 0 c-14 0
-27 -3 -31 -6z"/>
<path d="M6390 4690 c-17 -4 -24 -12 -23 -26 7 -60 105 -639 109 -646 3 -4
258 -8 566 -8 l561 0 -6 36 c-3 19 -31 124 -61 232 -30 108 -67 244 -83 302
-27 100 -29 105 -56 108 -24 3 -28 0 -24 -15 3 -10 8 -33 12 -50 l7 -33 -99 0
-99 0 -13 50 c-12 46 -15 50 -42 50 -27 0 -29 -2 -23 -27 4 -16 11 -38 15 -50
8 -23 8 -23 -84 -23 l-93 0 -13 50 c-11 43 -16 50 -37 50 -24 0 -24 -2 -18
-50 l7 -50 -97 0 c-70 0 -96 3 -96 13 0 6 -5 28 -10 47 -8 28 -15 36 -36 38
-26 2 -26 1 -19 -48 l7 -50 -101 0 -101 0 -5 28 c-16 74 -19 79 -45 72z m276
-220 c6 -36 10 -67 7 -70 -3 -3 -50 -5 -106 -5 l-101 0 -11 73 -11 73 105 -3
105 -3 12 -65z m247 25 c4 -25 9 -56 13 -70 l6 -25 -100 0 -99 0 -6 45 c-4 25
-9 56 -13 70 l-6 25 100 0 99 0 6 -45z m243 18 c3 -16 10 -44 15 -63 5 -19 9
-39 9 -43 0 -4 -44 -6 -97 -5 l-97 3 -13 60 c-7 33 -12 63 -13 68 0 4 43 7 95
7 l95 0 6 -27z m287 -109 c21 -75 37 -137 35 -139 -2 -1 -47 -5 -100 -7 -84
-4 -98 -3 -102 11 -17 57 -66 251 -66 260 0 7 34 11 98 11 l97 0 38 -136z
m-491 -94 l15 -70 -102 0 -102 0 -6 38 c-4 20 -9 52 -13 70 l-6 32 99 0 100 0
15 -70z m243 30 c7 -20 16 -50 20 -68 l7 -32 -100 0 -100 0 -14 63 c-8 34 -13
64 -12 67 1 3 44 5 95 5 l92 0 12 -35z m-511 15 c3 -8 8 -37 12 -65 l7 -50
-107 0 c-94 0 -106 2 -107 18 0 9 -4 38 -8 65 l-8 47 103 0 c81 0 103 -3 108
-15z m287 -153 c7 -7 29 -94 29 -111 0 -8 -77 -11 -238 -11 l-238 0 -10 65 -9
64 115 3 c149 4 343 -2 351 -10z m260 -4 c3 -7 10 -31 13 -53 4 -22 9 -47 11
-55 4 -13 -10 -15 -94 -12 l-100 3 -10 47 c-6 26 -13 57 -17 69 -6 21 -5 22
92 18 65 -3 100 -9 105 -17z m286 -50 l20 -73 -105 -3 c-58 -1 -107 -1 -109 2
-5 5 -32 115 -33 134 0 9 27 12 104 12 l104 0 19 -72z"/>
<path d="M4033 4673 c9 -2 25 -2 35 0 9 3 1 5 -18 5 -19 0 -27 -2 -17 -5z"/>
<path d="M3583 4647 c0 -7 11 -14 24 -15 26 -2 31 13 7 22 -23 9 -31 7 -31 -7z"/>
<path d="M2830 4535 c0 -8 2 -15 4 -15 2 0 6 7 10 15 3 8 1 15 -4 15 -6 0 -10
-7 -10 -15z"/>
<path d="M2508 3863 c7 -3 16 -2 19 1 4 3 -2 6 -13 5 -11 0 -14 -3 -6 -6z"/>
<path d="M2633 3863 c9 -2 23 -2 30 0 6 3 -1 5 -18 5 -16 0 -22 -2 -12 -5z"/>
<path d="M2813 3863 c9 -2 23 -2 30 0 6 3 -1 5 -18 5 -16 0 -22 -2 -12 -5z"/>
<path d="M2888 3863 c12 -2 30 -2 40 0 9 3 -1 5 -23 4 -22 0 -30 -2 -17 -4z"/>
<path d="M2640 3830 c0 -5 7 -7 15 -4 8 4 15 8 15 10 0 2 -7 4 -15 4 -8 0 -15
-4 -15 -10z"/>
<path d="M5258 3833 c7 -3 16 -2 19 1 4 3 -2 6 -13 5 -11 0 -14 -3 -6 -6z"/>
<path d="M5525 3830 c28 -12 37 -12 30 0 -3 6 -16 10 -28 9 -21 0 -21 -1 -2
-9z"/>
<path d="M5758 3833 c7 -3 16 -2 19 1 4 3 -2 6 -13 5 -11 0 -14 -3 -6 -6z"/>
<path d="M5958 3833 c6 -2 18 -2 25 0 6 3 1 5 -13 5 -14 0 -19 -2 -12 -5z"/>
<path d="M6477 3827 c-4 -10 2 -13 19 -9 13 2 24 8 24 13 0 14 -37 10 -43 -4z"/>
<path d="M6698 3833 c7 -3 16 -2 19 1 4 3 -2 6 -13 5 -11 0 -14 -3 -6 -6z"/>
<path d="M7570 3823 c0 -12 -3 -28 -6 -37 -4 -11 0 -14 15 -13 25 2 26 6 6 43
-13 26 -15 26 -15 7z"/>
<path d="M5320 3809 c0 -5 5 -7 10 -4 6 3 10 8 10 11 0 2 -4 4 -10 4 -5 0 -10
-5 -10 -11z"/>
<path d="M6368 3813 c-16 -2 -28 -9 -28 -15 0 -12 49 -2 65 13 6 6 6 8 0 8 -6
-1 -22 -4 -37 -6z"/>
<path d="M6550 3810 c-9 -6 -10 -10 -3 -10 6 0 15 5 18 10 8 12 4 12 -15 0z"/>
<path d="M5223 3802 c-13 -2 -23 -8 -23 -13 0 -6 -4 -8 -9 -4 -6 3 -8 -3 -6
-15 2 -11 0 -22 -6 -25 -5 -4 -9 -12 -9 -18 0 -7 4 -6 10 3 8 13 11 11 16 -7
8 -30 55 -33 49 -4 -3 16 3 19 31 19 51 0 52 9 2 18 -41 7 -42 8 -13 13 17 4
31 13 33 23 2 12 -2 15 -17 11 -12 -3 -21 -10 -22 -17 0 -6 -3 -4 -7 4 -4 9
-17 14 -29 12z"/>
<path d="M7143 3803 c-23 -9 -14 -20 18 -21 25 -1 28 2 18 14 -12 15 -16 16
-36 7z"/>
<path d="M7540 3800 c0 -5 5 -10 10 -10 6 0 10 5 10 10 0 6 -4 10 -10 10 -5 0
-10 -4 -10 -10z"/>
<path d="M3216 3788 c3 -5 10 -6 15 -3 13 9 11 12 -6 12 -8 0 -12 -4 -9 -9z"/>
<path d="M6108 3793 c6 -2 18 -2 25 0 6 3 1 5 -13 5 -14 0 -19 -2 -12 -5z"/>
<path d="M5695 3780 c-19 -8 -19 -9 2 -9 12 -1 25 4 28 9 7 12 -2 12 -30 0z"/>
<path d="M6387 3783 c-12 -12 -7 -33 7 -33 8 0 22 -7 30 -16 15 -14 16 -14 16
0 0 9 -6 16 -14 16 -21 0 -40 27 -24 33 7 3 8 6 2 6 -6 1 -14 -2 -17 -6z"/>
<path d="M3246 3763 c-6 -14 -5 -15 5 -6 7 7 10 15 7 18 -3 3 -9 -2 -12 -12z"/>
<path d="M5560 3751 c0 -11 4 -22 9 -25 4 -3 6 6 3 19 -5 30 -12 33 -12 6z"/>
<path d="M6200 3759 c0 -6 -6 -9 -13 -6 -8 3 -20 1 -28 -5 -10 -7 -5 -8 19 -5
29 3 37 -3 33 -25 -2 -12 17 -9 24 3 4 6 -2 19 -14 30 -12 11 -21 15 -21 8z"/>
<path d="M2880 3750 c0 -5 5 -10 10 -10 6 0 10 5 10 10 0 6 -4 10 -10 10 -5 0
-10 -4 -10 -10z"/>
<path d="M5448 3733 c6 -2 18 -2 25 0 6 3 1 5 -13 5 -14 0 -19 -2 -12 -5z"/>
<path d="M5402 3722 c-29 -9 -7 -17 55 -20 37 -1 64 1 60 5 -9 8 -99 21 -115
15z"/>
<path d="M5525 3720 c3 -5 8 -10 11 -10 2 0 4 5 4 10 0 6 -5 10 -11 10 -5 0
-7 -4 -4 -10z"/>
<path d="M5596 3714 c-6 -15 -4 -15 11 -3 10 7 20 15 22 16 2 2 -3 3 -11 3 -9
0 -19 -7 -22 -16z"/>
<path d="M6045 3722 c-14 -15 0 -22 43 -22 63 0 68 24 6 26 -24 1 -46 -1 -49
-4z"/>
<path d="M6165 3720 c-18 -8 -17 -9 8 -9 15 -1 27 4 27 9 0 12 -8 12 -35 0z"/>
<path d="M6560 3710 c0 -5 10 -10 23 -10 18 0 19 2 7 10 -19 13 -30 13 -30 0z"/>
<path d="M2720 3700 c0 -5 5 -10 10 -10 6 0 10 5 10 10 0 6 -4 10 -10 10 -5 0
-10 -4 -10 -10z"/>
<path d="M5080 3706 c0 -2 11 -6 25 -8 13 -3 22 -1 19 3 -5 9 -44 13 -44 5z"/>
<path d="M5165 3700 c-3 -5 -1 -10 4 -10 6 0 11 5 11 10 0 6 -2 10 -4 10 -3 0
-8 -4 -11 -10z"/>
<path d="M3017 3689 c7 -7 15 -10 18 -7 3 3 -2 9 -12 12 -14 6 -15 5 -6 -5z"/>
<path d="M3150 3690 c-13 -8 -12 -10 3 -10 9 0 17 5 17 10 0 12 -1 12 -20 0z"/>
<path d="M5402 3688 c-9 -4 33 -6 93 -6 110 1 105 5 -13 10 -35 2 -71 0 -80
-4z"/>
<path d="M4938 3679 c-14 -5 -3 -7 32 -7 30 0 64 3 75 8 24 10 -71 9 -107 -1z"/>
<path d="M5243 3683 c15 -2 39 -2 55 0 15 2 2 4 -28 4 -30 0 -43 -2 -27 -4z"/>
<path d="M5334 3681 c3 -5 15 -7 26 -4 28 7 25 13 -6 13 -14 0 -23 -4 -20 -9z"/>
<path d="M6083 3683 c9 -2 23 -2 30 0 6 3 -1 5 -18 5 -16 0 -22 -2 -12 -5z"/>
<path d="M6227 3683 c18 -2 50 -2 70 0 21 2 7 4 -32 4 -38 0 -55 -2 -38 -4z"/>
<path d="M6568 3683 c7 -3 16 -2 19 1 4 3 -2 6 -13 5 -11 0 -14 -3 -6 -6z"/>
<path d="M7448 3683 c7 -3 16 -2 19 1 4 3 -2 6 -13 5 -11 0 -14 -3 -6 -6z"/>
<path d="M7488 3683 c6 -2 18 -2 25 0 6 3 1 5 -13 5 -14 0 -19 -2 -12 -5z"/>
<path d="M7553 3683 c9 -2 25 -2 35 0 9 3 1 5 -18 5 -19 0 -27 -2 -17 -5z"/>
<path d="M1527 4543 c-14 -13 -6 -20 18 -15 14 2 25 8 25 13 0 10 -34 12 -43
2z"/>
<path d="M9025 4575 c-40 -9 -95 -30 -95 -36 0 -13 24 -16 64 -7 21 5 56 8 77
6 36 -2 58 6 48 16 -7 7 -82 23 -94 21z"/>
<path d="M8295 4202 c-27 -5 -44 -22 -22 -22 9 0 17 -4 17 -10 0 -5 -9 -10
-20 -10 -22 0 -27 -24 -8 -36 7 -4 8 -3 4 5 -6 8 -1 10 17 6 27 -7 97 18 97
34 0 6 -13 8 -32 5 -27 -4 -30 -3 -15 6 33 21 15 32 -38 22z"/>
<path d="M8777 4183 c-4 -3 -7 -11 -7 -17 0 -6 5 -5 12 2 15 15 32 16 23 2 -9
-15 4 -12 21 5 14 13 12 15 -14 15 -16 0 -32 -3 -35 -7z"/>
<path d="M8833 4155 c-18 -19 -17 -20 20 -22 26 -1 28 0 12 7 -18 8 -18 9 -2
9 10 1 15 6 12 11 -9 14 -28 12 -42 -5z"/>
<path d="M8080 4140 c-8 -5 -12 -11 -9 -14 2 -3 11 -1 19 4 8 5 12 11 9 14 -2
3 -11 1 -19 -4z"/>
<path d="M8750 4141 c0 -6 4 -12 8 -15 5 -3 9 1 9 9 0 8 -4 15 -9 15 -4 0 -8
-4 -8 -9z"/>
<path d="M8787 4143 c-4 -3 -7 -11 -7 -17 0 -6 5 -5 12 2 6 6 9 14 7 17 -3 3
-9 2 -12 -2z"/>
<path d="M8120 4089 c0 -5 5 -7 10 -4 6 3 10 8 10 11 0 2 -4 4 -10 4 -5 0 -10
-5 -10 -11z"/>
<path d="M8530 4000 c0 -5 5 -10 10 -10 6 0 10 5 10 10 0 6 -4 10 -10 10 -5 0
-10 -4 -10 -10z"/>
<path d="M8380 3689 c0 -4 14 -9 30 -11 19 -3 29 -1 27 6 -4 12 -57 16 -57 5z"/>
<path d="M8500 3679 c0 -5 5 -7 10 -4 6 3 10 8 10 11 0 2 -4 4 -10 4 -5 0 -10
-5 -10 -11z"/>
<path d="M8458 3673 c6 -2 18 -2 25 0 6 3 1 5 -13 5 -14 0 -19 -2 -12 -5z"/>
<path d="M2933 4526 c-3 -5 -1 -6 5 -2 6 3 13 2 17 -4 7 -11 25 -4 25 10 0 11
-40 8 -47 -4z"/>
<path d="M3130 4525 c-1 -11 -4 -15 -7 -7 -3 7 -22 11 -51 11 -32 -2 -37 -3
-17 -6 17 -2 40 -9 52 -15 27 -13 37 -7 30 19 -4 16 -5 16 -7 -2z"/>
<path d="M3009 4520 c-1 -8 -1 -18 0 -22 2 -13 -47 -9 -51 4 -7 21 -41 0 -35
-22 3 -11 1 -18 -4 -14 -5 3 -9 -1 -9 -8 0 -11 25 -14 105 -16 64 -2 105 1
105 7 0 5 3 18 7 28 6 15 4 16 -8 6 -13 -10 -20 -9 -37 7 -12 11 -27 20 -35
20 -7 0 -18 5 -25 12 -9 9 -12 9 -13 -2z m46 -29 c9 -16 -9 -20 -23 -5 -10 12
-10 14 2 14 8 0 17 -4 21 -9z m40 -33 c6 -4 2 -8 -7 -8 -10 0 -18 7 -18 17 0
9 3 12 8 7 4 -5 12 -12 17 -16z m-85 1 c0 -11 -21 -11 -39 0 -9 6 -5 9 13 9
14 0 26 -4 26 -9z"/>
<path d="M3830 4449 c0 -5 5 -7 10 -4 6 3 10 8 10 11 0 2 -4 4 -10 4 -5 0 -10
-5 -10 -11z"/>
<path d="M3898 4423 c7 -3 16 -2 19 1 4 3 -2 6 -13 5 -11 0 -14 -3 -6 -6z"/>
<path d="M6017 4523 c18 -2 50 -2 70 0 21 2 7 4 -32 4 -38 0 -55 -2 -38 -4z"/>
<path d="M3616 4455 c-4 -10 1 -15 16 -15 17 0 18 2 8 15 -7 8 -14 15 -15 15
-2 0 -5 -7 -9 -15z"/>
<path d="M2280 4426 c0 -2 7 -7 16 -10 8 -3 12 -2 9 4 -6 10 -25 14 -25 6z"/>
<path d="M2043 3705 c2 -5 9 -10 15 -9 7 1 21 2 32 3 34 2 22 16 -15 16 -19 0
-33 -4 -32 -10z"/>
<path d="M3793 4293 c9 -2 23 -2 30 0 6 3 -1 5 -18 5 -16 0 -22 -2 -12 -5z"/>
<path d="M3738 4253 c7 -3 16 -2 19 1 4 3 -2 6 -13 5 -11 0 -14 -3 -6 -6z"/>
<path d="M3778 4253 c6 -2 18 -2 25 0 6 3 1 5 -13 5 -14 0 -19 -2 -12 -5z"/>
<path d="M4206 4142 c-3 -6 7 -12 22 -15 25 -5 41 -2 31 7 -12 10 -48 16 -53
8z"/>
<path d="M4745 3740 c3 -5 8 -10 11 -10 2 0 4 5 4 10 0 6 -5 10 -11 10 -5 0
-7 -4 -4 -10z"/>
<path d="M2375 3620 c3 -5 10 -10 16 -10 5 0 9 5 9 10 0 6 -7 10 -16 10 -8 0
-12 -4 -9 -10z"/>
<path d="M2136 3575 c-3 -8 -1 -15 3 -15 5 0 11 7 15 15 3 8 1 15 -3 15 -5 0
-11 -7 -15 -15z"/>
<path d="M2343 3553 c-20 -8 -15 -23 7 -23 11 0 19 -6 18 -12 -2 -7 8 -14 22
-16 24 -2 24 -2 6 13 -14 10 -15 15 -6 15 9 0 7 5 -6 15 -21 16 -23 16 -41 8z"/>
<path d="M2433 3499 c20 -12 23 -35 5 -42 -10 -4 -10 -6 0 -6 8 -1 16 8 19 19
3 12 14 20 26 20 31 0 17 6 -28 13 -30 5 -35 3 -22 -4z"/>
<path d="M2510 3500 c0 -5 5 -10 11 -10 5 0 7 5 4 10 -3 6 -8 10 -11 10 -2 0
-4 -4 -4 -10z"/>
<path d="M2380 3481 c0 -5 11 -8 25 -8 14 0 25 3 25 8 0 5 -11 9 -25 9 -14 0
-25 -4 -25 -9z"/>
<path d="M2298 3473 c7 -3 16 -2 19 1 4 3 -2 6 -13 5 -11 0 -14 -3 -6 -6z"/>
<path d="M2498 3463 c7 -3 16 -2 19 1 4 3 -2 6 -13 5 -11 0 -14 -3 -6 -6z"/>
<path d="M2378 3443 c7 -3 16 -2 19 1 4 3 -2 6 -13 5 -11 0 -14 -3 -6 -6z"/>
<path d="M2130 3430 c-12 -8 -11 -10 7 -10 12 0 25 5 28 10 8 13 -15 13 -35 0z"/>
<path d="M2250 3429 c0 -5 5 -7 10 -4 6 3 10 8 10 11 0 2 -4 4 -10 4 -5 0 -10
-5 -10 -11z"/>
<path d="M2368 3423 c7 -3 16 -2 19 1 4 3 -2 6 -13 5 -11 0 -14 -3 -6 -6z"/>
<path d="M1988 3403 c6 -2 18 -2 25 0 6 3 1 5 -13 5 -14 0 -19 -2 -12 -5z"/>
<path d="M2231 3399 c-13 -5 -21 -12 -18 -15 3 -3 18 1 34 10 31 17 21 20 -16
5z"/>
<path d="M2058 3393 c6 -2 18 -2 25 0 6 3 1 5 -13 5 -14 0 -19 -2 -12 -5z"/>
<path d="M2130 3389 c0 -5 5 -7 10 -4 6 3 10 8 10 11 0 2 -4 4 -10 4 -5 0 -10
-5 -10 -11z"/>
<path d="M2378 3393 c7 -3 16 -2 19 1 4 3 -2 6 -13 5 -11 0 -14 -3 -6 -6z"/>
<path d="M2800 3380 c0 -5 5 -10 11 -10 5 0 7 5 4 10 -3 6 -8 10 -11 10 -2 0
-4 -4 -4 -10z"/>
<path d="M2258 3373 c6 -2 18 -2 25 0 6 3 1 5 -13 5 -14 0 -19 -2 -12 -5z"/>
<path d="M2237 3359 c7 -7 15 -10 18 -7 3 3 -2 9 -12 12 -14 6 -15 5 -6 -5z"/>
<path d="M2745 3360 c3 -5 8 -10 11 -10 2 0 4 5 4 10 0 6 -5 10 -11 10 -5 0
-7 -4 -4 -10z"/>
<path d="M2910 3359 c-30 -5 -26 -7 24 -8 33 0 57 1 54 4 -9 10 -42 11 -78 4z"/>
<path d="M3146 3361 c-4 -5 3 -7 14 -4 23 6 26 13 6 13 -8 0 -17 -4 -20 -9z"/>
<path d="M1975 3350 c-4 -6 11 -10 37 -10 31 0 39 3 28 10 -20 13 -57 13 -65
0z"/>
<path d="M2433 3353 c9 -2 25 -2 35 0 9 3 1 5 -18 5 -19 0 -27 -2 -17 -5z"/>
<path d="M2546 3337 c3 -10 9 -15 12 -12 3 3 0 11 -7 18 -10 9 -11 8 -5 -6z"/>
<path d="M3240 3340 c0 -5 5 -10 11 -10 5 0 7 5 4 10 -3 6 -8 10 -11 10 -2 0
-4 -4 -4 -10z"/>
<path d="M3270 3346 c0 -3 9 -10 20 -16 11 -6 20 -8 20 -6 0 3 -9 10 -20 16
-11 6 -20 8 -20 6z"/>
<path d="M2750 3330 c-11 -7 -6 -9 17 -7 18 1 33 5 33 10 0 10 -32 9 -50 -3z"/>
<path d="M2830 3330 c0 -5 5 -10 11 -10 5 0 7 5 4 10 -3 6 -8 10 -11 10 -2 0
-4 -4 -4 -10z"/>
<path d="M2865 3330 c3 -5 8 -10 11 -10 2 0 4 5 4 10 0 6 -5 10 -11 10 -5 0
-7 -4 -4 -10z"/>
<path d="M2565 3299 c-13 -6 -4 -7 30 -3 28 4 52 8 54 10 9 8 -65 2 -84 -7z"/>
<path d="M6495 3466 c-13 -9 -16 -19 -11 -32 8 -18 9 -18 18 2 9 19 14 20 50
13 24 -6 45 -6 56 1 13 7 9 9 -21 10 -21 0 -46 4 -56 10 -13 6 -24 5 -36 -4z"/>
<path d="M6975 3430 c-4 -6 7 -10 24 -10 17 0 31 5 31 10 0 6 -11 10 -24 10
-14 0 -28 -4 -31 -10z"/>
<path d="M6618 3413 c7 -3 16 -2 19 1 4 3 -2 6 -13 5 -11 0 -14 -3 -6 -6z"/>
<path d="M6860 3360 c0 -5 4 -10 9 -10 6 0 13 5 16 10 3 6 -1 10 -9 10 -9 0
-16 -4 -16 -10z"/>
<path d="M5376 3411 c-4 -5 3 -7 14 -4 23 6 26 13 6 13 -8 0 -17 -4 -20 -9z"/>
<path d="M5821 3399 c-31 -34 -26 -51 9 -29 13 9 13 10 0 10 -12 1 -11 4 4 15
11 8 17 17 14 21 -3 3 -15 -5 -27 -17z"/>
<path d="M5420 3401 c0 -6 9 -9 20 -8 11 1 20 5 20 9 0 4 -9 8 -20 8 -11 0
-20 -4 -20 -9z"/>
<path d="M5565 3390 c-3 -5 -2 -10 4 -10 5 0 13 5 16 10 3 6 2 10 -4 10 -5 0
-13 -4 -16 -10z"/>
<path d="M5713 3365 c0 -8 4 -15 9 -15 4 0 8 7 8 15 0 8 -4 15 -8 15 -5 0 -9
-7 -9 -15z"/>
<path d="M5755 3373 c11 -3 23 -10 27 -17 5 -7 8 -5 8 7 0 12 -7 17 -27 16
-22 -1 -23 -2 -8 -6z"/>
<path d="M9647 4366 c-3 -6 7 -11 24 -12 31 -1 31 11 0 19 -11 2 -22 0 -24 -7z"/>
<path d="M610 4346 c0 -2 7 -7 16 -10 8 -3 12 -2 9 4 -6 10 -25 14 -25 6z"/>
<path d="M9680 4320 c0 -5 15 -10 33 -10 24 0 28 3 17 10 -20 13 -50 13 -50 0z"/>
<path d="M438 4133 c7 -3 16 -2 19 1 4 3 -2 6 -13 5 -11 0 -14 -3 -6 -6z"/>
<path d="M9788 3653 c7 -3 16 -2 19 1 4 3 -2 6 -13 5 -11 0 -14 -3 -6 -6z"/>
<path d="M9845 3640 c-3 -6 1 -7 9 -4 18 7 21 14 7 14 -6 0 -13 -4 -16 -10z"/>
<path d="M680 3600 c-9 -6 -10 -10 -3 -10 6 0 15 5 18 10 8 12 4 12 -15 0z"/>
<path d="M8848 3253 c6 -2 18 -2 25 0 6 3 1 5 -13 5 -14 0 -19 -2 -12 -5z"/>
<path d="M8423 3213 c9 -2 23 -2 30 0 6 3 -1 5 -18 5 -16 0 -22 -2 -12 -5z"/>
<path d="M8748 3213 c7 -3 16 -2 19 1 4 3 -2 6 -13 5 -11 0 -14 -3 -6 -6z"/>
<path d="M8810 3210 c0 -5 7 -10 16 -10 8 0 12 5 9 10 -3 6 -10 10 -16 10 -5
0 -9 -4 -9 -10z"/>
<path d="M7504 3188 c-3 -4 4 -8 15 -8 11 0 22 4 26 9 3 6 -4 9 -16 8 -11 -1
-23 -5 -25 -9z"/>
<path d="M8355 3190 c-3 -5 -28 -8 -56 -6 -35 2 -46 0 -34 -7 9 -5 38 -6 63
-3 26 3 67 6 92 7 42 1 43 1 15 9 -43 11 -73 11 -80 0z"/>
<path d="M7328 3173 c6 -2 18 -2 25 0 6 3 1 5 -13 5 -14 0 -19 -2 -12 -5z"/>
<path d="M7390 3176 c0 -2 7 -6 15 -10 8 -3 15 -1 15 4 0 6 -7 10 -15 10 -8 0
-15 -2 -15 -4z"/>
<path d="M7950 3170 c-24 -8 -23 -8 8 -9 20 -1 31 3 27 9 -3 6 -7 10 -8 9 -1
-1 -13 -5 -27 -9z"/>
<path d="M8205 3170 c3 -5 18 -10 33 -9 24 0 25 1 7 9 -28 12 -47 12 -40 0z"/>
<path d="M5084 3158 c9 -5 23 -5 32 0 12 6 7 9 -16 9 -23 0 -28 -3 -16 -9z"/>
<path d="M6583 3163 c9 -2 25 -2 35 0 9 3 1 5 -18 5 -19 0 -27 -2 -17 -5z"/>
<path d="M5150 3150 c0 -5 5 -10 10 -10 6 0 10 5 10 10 0 6 -4 10 -10 10 -5 0
-10 -4 -10 -10z"/>
<path d="M5031 3134 c0 -11 3 -14 6 -6 3 7 2 16 -1 19 -3 4 -6 -2 -5 -13z"/>
<path d="M4218 3123 c7 -3 16 -2 19 1 4 3 -2 6 -13 5 -11 0 -14 -3 -6 -6z"/>
</g>
</svg>
